<?xml version="1.0" encoding="utf-8" ?>
<svg xmlns="http://www.w3.org/2000/svg" xmlns:xlink="http://www.w3.org/1999/xlink" width="30" height="30">
	<path fill="#013C58" transform="scale(0.0292969 0.0292969)" d="M0 0L1024 0L1024 1024L0 1024L0 0Z"/>
	<path fill="#F5A201" transform="scale(0.0292969 0.0292969)" d="M739.184 235.492C748.471 243.572 762.642 254.745 769.676 264.529Q751.405 264.367 733.135 264.566Q717.785 265.005 702.43 264.841C706.396 258.696 711.628 252.559 717.566 248.253C724.496 242.532 731.118 239.264 739.184 235.492Z"/>
	<defs>
		<linearGradient id="gradient_0" gradientUnits="userSpaceOnUse" x1="100.15865" y1="548.10474" x2="383.59125" y2="267.09134">
			<stop offset="0" stop-color="#4B9FAF"/>
			<stop offset="1" stop-color="#88CEE3"/>
		</linearGradient>
	</defs>
	<path fill="url(#gradient_0)" transform="scale(0.0292969 0.0292969)" d="M164.24 615.024C161.322 605.364 159.359 595.183 157.517 585.267Q156.637 580.561 155.884 575.832Q155.131 571.104 154.505 566.357Q153.88 561.61 153.381 556.848Q152.883 552.086 152.513 547.313Q152.142 542.539 151.9 537.757Q151.658 532.975 151.544 528.189Q151.431 523.402 151.445 518.614Q151.46 513.826 151.603 509.04Q151.747 504.255 152.018 499.474Q152.29 494.694 152.69 489.923Q153.089 485.152 153.617 480.393Q154.145 475.634 154.8 470.891Q155.455 466.148 156.237 461.425Q157.019 456.701 157.928 452Q158.837 447.299 159.871 442.624Q160.905 437.949 162.065 433.304Q163.109 428.954 164.259 424.63Q165.409 420.307 166.665 416.012Q167.92 411.718 169.281 407.456Q170.641 403.194 172.106 398.967Q173.571 394.74 175.138 390.55Q176.706 386.359 178.376 382.209Q180.046 378.058 181.817 373.95Q183.588 369.842 185.46 365.778Q187.331 361.714 189.302 357.698Q191.272 353.681 193.34 349.714Q195.408 345.747 197.573 341.832Q199.738 337.916 201.998 334.055Q204.258 330.194 206.612 326.39Q208.966 322.586 211.413 318.84Q213.86 315.094 216.397 311.41Q218.935 307.725 221.562 304.104Q224.19 300.483 226.905 296.927Q229.62 293.371 232.421 289.883Q235.223 286.395 238.109 282.977Q240.995 279.558 243.964 276.211Q246.933 272.865 249.984 269.592Q253.034 266.319 256.163 263.122Q259.293 259.925 262.5 256.805Q265.707 253.686 268.989 250.646Q272.271 247.606 275.627 244.647Q278.983 241.689 282.411 238.813Q285.838 235.938 289.335 233.147Q292.832 230.356 296.396 227.652Q299.96 224.948 303.59 222.332Q307.219 219.716 310.911 217.19Q314.604 214.664 318.357 212.229Q322.11 209.794 325.922 207.452C325.769 209.73 325.675 212.028 325.448 214.298C327.698 217.749 328.908 221.153 330.093 225.072C330.339 225.887 330.457 227.246 330.761 227.952C331.118 228.778 331.52 228.673 332.275 228.899L331.41 229.068C319.438 234.154 307.11 245.633 297.223 254.125C291.502 259.04 285.25 263.412 279.725 268.526C244.648 300.988 216.648 342.746 198.741 387.031Q196.716 392.155 194.849 397.338Q192.983 402.522 191.278 407.761Q189.572 412.999 188.03 418.288Q186.487 423.577 185.108 428.911Q183.729 434.245 182.516 439.619Q181.302 444.993 180.255 450.402Q179.208 455.811 178.329 461.25Q177.449 466.689 176.738 472.152Q176.027 477.615 175.484 483.098Q174.942 488.58 174.569 494.077Q174.197 499.574 173.994 505.079Q173.791 510.585 173.758 516.094Q173.725 521.604 173.862 527.111Q174 532.619 174.307 538.12Q174.614 543.62 175.091 549.109Q175.568 554.598 176.214 560.069Q177.364 570.185 179.565 580.126C180.461 584.265 181.698 588.511 182.271 592.698L181.806 593.455C177.43 598.259 168.241 612.04 164.24 615.024Z"/>
	<path fill="#A8E8F9" transform="scale(0.0292969 0.0292969)" d="M391.15 175.978Q395.197 174.494 399.279 173.108Q403.361 171.723 407.475 170.437Q411.59 169.151 415.734 167.965Q419.878 166.78 424.05 165.696Q428.222 164.611 432.419 163.629Q436.617 162.646 440.836 161.766Q445.056 160.885 449.296 160.108Q453.536 159.331 457.794 158.657Q462.051 157.982 466.324 157.412Q470.597 156.842 474.882 156.375Q479.167 155.909 483.463 155.547Q487.758 155.185 492.061 154.928Q496.364 154.67 500.672 154.517Q504.98 154.365 509.29 154.317Q513.601 154.269 517.911 154.325Q522.221 154.382 526.529 154.544Q530.836 154.705 535.139 154.972Q539.441 155.238 543.736 155.609Q548.031 155.98 552.315 156.455Q556.599 156.93 560.871 157.509Q565.142 158.088 569.398 158.771Q573.655 159.454 577.893 160.24Q582.131 161.026 586.349 161.915Q590.567 162.804 594.762 163.795Q598.958 164.786 603.127 165.879Q607.297 166.972 611.439 168.166Q615.581 169.36 619.693 170.654Q623.805 171.949 627.884 173.342Q631.963 174.736 636.007 176.229Q640.051 177.722 644.057 179.312Q648.063 180.903 652.03 182.59Q655.997 184.278 659.921 186.061Q670.601 190.878 680.934 196.399Q691.268 201.92 701.209 208.12Q711.151 214.319 720.655 221.17Q730.159 228.021 739.184 235.492C731.118 239.264 724.496 242.532 717.566 248.253C711.628 252.559 706.396 258.696 702.43 264.841C694.196 264.505 685.946 264.883 677.71 264.567C663.784 265.522 650.47 266.341 637.875 273.04C636.192 272.84 635.269 272.538 633.68 273.186C631.937 275.892 633.042 280.988 632.6 284.263C632.34 277.86 632.856 271.424 632.502 265.03C631.263 242.692 620.132 221.127 603.4 206.409C593.379 197.594 580.867 190.847 567.882 187.673C552.345 183.875 520.977 185.431 503.866 185.47C489.373 185.503 474.479 184.859 460.037 185.871C437.067 187.48 414.781 199.227 398.93 215.664C396.115 218.583 393.988 222.034 391.347 225.093C386.468 227.474 380.225 243.716 378.473 248.844C375.54 257.429 373.959 265.862 373.233 274.904C372.917 278.83 374.206 294.665 372.902 296.869C372.677 296.658 372.457 296.441 372.227 296.236C366.888 291.507 358.836 289.848 353.448 284.83C349.865 281.492 343.495 269.829 341.611 268.592C340.855 268.096 339.714 267.971 338.866 267.727C338.753 267.694 338.651 267.632 338.544 267.584L338.233 267.009C334.274 259.848 318.559 245.268 318.674 237.996C321.966 234.085 328.234 233.026 331.41 229.068L332.275 228.899C331.52 228.673 331.118 228.778 330.761 227.952C330.457 227.246 330.339 225.887 330.093 225.072C328.908 221.153 327.698 217.749 325.448 214.298C325.675 212.028 325.769 209.73 325.922 207.452C345.3 194.487 369.186 183.733 391.15 175.978Z"/>
	<defs>
		<linearGradient id="gradient_1" gradientUnits="userSpaceOnUse" x1="124.91402" y1="528.59125" x2="373.64346" y2="297.22931">
			<stop offset="0" stop-color="#318DA2"/>
			<stop offset="1" stop-color="#6EC5DB"/>
		</linearGradient>
	</defs>
	<path fill="url(#gradient_1)" transform="scale(0.0292969 0.0292969)" d="M338.544 267.584C338.651 267.632 338.753 267.694 338.866 267.727C339.714 267.971 340.855 268.096 341.611 268.592C343.495 269.829 349.865 281.492 353.448 284.83C358.836 289.848 366.888 291.507 372.227 296.236C372.457 296.441 372.677 296.658 372.902 296.869C374.206 294.665 372.917 278.83 373.233 274.904C373.959 265.862 375.54 257.429 378.473 248.844C380.225 243.716 386.468 227.474 391.347 225.093C376.21 250.032 374.046 263.816 374.047 292.417L374.014 326.657C373.988 332.377 374.364 338.272 373.921 343.971C373.386 350.831 369.071 356.564 368.083 363.513C362.883 369.737 358.234 376.421 353.067 382.691L244.21 517.157C223.823 542.542 202.49 567.179 182.271 592.698C181.698 588.511 180.461 584.265 179.565 580.126Q177.364 570.185 176.214 560.069Q175.568 554.598 175.091 549.109Q174.614 543.62 174.307 538.12Q174 532.619 173.862 527.111Q173.725 521.604 173.758 516.094Q173.791 510.585 173.994 505.079Q174.197 499.574 174.569 494.077Q174.942 488.58 175.484 483.098Q176.027 477.615 176.738 472.152Q177.449 466.689 178.329 461.25Q179.208 455.811 180.255 450.402Q181.302 444.993 182.516 439.619Q183.729 434.245 185.108 428.911Q186.487 423.577 188.03 418.288Q189.572 412.999 191.278 407.761Q192.983 402.522 194.849 397.338Q196.716 392.155 198.741 387.031C216.648 342.746 244.648 300.988 279.725 268.526C285.25 263.412 291.502 259.04 297.223 254.125C307.11 245.633 319.438 234.154 331.41 229.068C328.234 233.026 321.966 234.085 318.674 237.996C318.559 245.268 334.274 259.848 338.233 267.009L338.544 267.584Z"/>
	<path fill="#FEFEFC" transform="scale(0.0292969 0.0292969)" d="M632.6 284.263C633.042 280.988 631.937 275.892 633.68 273.186C635.269 272.538 636.192 272.84 637.875 273.04C641.176 279.222 643.408 284.999 644.465 291.948C651.699 287.271 659.521 283.771 668.149 282.746C680.199 281.315 693.172 282.221 705.348 282.282L764.387 282.231L841.422 282.122C850.398 282.127 868.007 281.182 876.184 282.848C886.74 284.998 897.659 292.659 903.439 301.702Q904.612 303.527 905.581 305.468Q906.55 307.41 907.302 309.445Q908.054 311.48 908.582 313.584Q909.109 315.689 909.405 317.838C910.255 323.775 910.008 329.999 910.014 335.989L910.005 361.704L910.015 394.225C910.011 403.04 910.669 412.427 908.733 421.064C906.297 431.932 898.987 442.259 889.564 448.23C884.363 451.525 878.217 453.582 872.163 454.564C864.439 455.818 856.075 455.27 848.268 455.267L812.726 455.266C807.949 455.253 801.945 454.175 797.393 455.596C792.292 457.188 786.941 461.684 782.524 464.682C766.855 475.315 751.816 487.514 735.708 497.388C735.331 487.709 736.673 471.313 735.282 462.89C734.961 460.951 734.484 459.114 733.014 457.718C731.562 456.34 729.606 455.667 727.666 455.332C722.877 454.505 717.421 455.013 712.56 455.052L688.064 455.171C664.321 455.226 647.896 452.873 632.402 432.787C626.932 436.193 621.497 439.84 615.861 442.954C611.461 440.568 604.369 427.364 601.566 422.507C603.386 418.518 604.87 414.477 605.859 410.205C613.251 408.027 619.448 405.17 625.031 399.748C631.229 393.727 635.384 386.226 636.613 377.633C637.326 372.645 637.486 365.796 635.917 361.015C634.854 357.773 632.874 354.135 632.682 350.755C632.22 342.646 632.548 334.382 632.535 326.252Q632.387 305.257 632.6 284.263Z"/>
	<path fill="#013C58" transform="scale(0.0292969 0.0292969)" d="M670.892 389.13C680.165 388.372 689.694 388.779 699.004 388.782L748.391 388.891L828.74 388.919C839.939 388.951 851.232 388.65 862.421 388.989C864.51 389.052 867.086 389.174 869.016 389.989C870.792 390.738 872.393 392.827 873.099 394.577C873.953 396.694 873.853 398.904 872.945 400.987C871.784 403.651 869.756 404.971 867.166 406.047C859.799 406.427 852.236 406.047 844.847 406.008L802.997 405.889L714.805 405.996C704.244 406.005 678.388 407.303 669.684 404.815C667.562 404.208 666.582 403.335 665.563 401.384C664.445 399.242 664.195 397.004 665.031 394.713C666.13 391.699 668.116 390.464 670.892 389.13Z"/>
	<path fill="#013C58" transform="scale(0.0292969 0.0292969)" d="M695.218 331.25L814.768 331.299Q830.494 331.315 846.219 331.167C852.522 331.118 859.217 330.645 865.469 331.437C867.859 331.74 870.347 333.146 871.769 335.102C873.146 336.995 873.464 339.317 873.059 341.586C872.44 345.052 870.765 346.571 867.931 348.436C859.542 348.908 851.045 348.69 842.64 348.723Q786.175 348.354 729.71 348.549L691.736 348.75C685.196 348.788 678.331 349.247 671.822 348.694C669.865 348.527 668.786 348.203 667.254 346.934C665.638 345.596 664.83 343.828 664.686 341.745C664.535 339.545 665.07 336.074 666.606 334.399C671.148 329.442 688.61 331.212 695.218 331.25Z"/>
	<path fill="#013C58" transform="scale(0.0292969 0.0292969)" d="M391.347 225.093C393.988 222.034 396.115 218.583 398.93 215.664C414.781 199.227 437.067 187.48 460.037 185.871C474.479 184.859 489.373 185.503 503.866 185.47C520.977 185.431 552.345 183.875 567.882 187.673C580.867 190.847 593.379 197.594 603.4 206.409C620.132 221.127 631.263 242.692 632.502 265.03C632.856 271.424 632.34 277.86 632.6 284.263Q632.387 305.258 632.535 326.252C632.548 334.382 632.22 342.646 632.682 350.755C632.874 354.135 634.854 357.773 635.917 361.015C637.486 365.796 637.326 372.645 636.613 377.633C635.384 386.226 631.229 393.727 625.031 399.748C619.448 405.17 613.251 408.027 605.859 410.205C604.87 414.477 603.386 418.518 601.566 422.507C604.369 427.364 611.461 440.568 615.861 442.954C622.351 448.461 628.021 454.754 635.023 459.682C660.226 477.42 689.754 470.82 718.434 472.306C718.355 481.094 717.063 507.035 718.752 514.27C719.143 515.944 720.22 517.501 721.443 518.682Q721.828 519.058 722.25 519.391Q722.672 519.724 723.127 520.01Q723.582 520.297 724.065 520.533Q724.548 520.77 725.054 520.954Q725.559 521.138 726.081 521.267Q726.603 521.397 727.136 521.47Q727.669 521.544 728.206 521.56Q728.744 521.577 729.28 521.536C737.892 520.806 791.396 479.345 803.966 472.137C820.042 471.773 836.151 472.017 852.232 472.033C859.95 472.04 868.235 472.614 875.882 471.633C876.018 484.143 877.124 498.384 875.89 510.699Q875.839 514.146 875.727 517.591Q875.616 521.036 875.444 524.479Q875.272 527.921 875.04 531.36Q874.808 534.8 874.516 538.234Q874.224 541.669 873.872 545.098Q873.52 548.526 873.108 551.949Q872.696 555.371 872.224 558.785Q871.752 562.2 871.221 565.606Q870.689 569.011 870.098 572.407Q869.507 575.803 868.857 579.188Q868.206 582.573 867.497 585.946Q866.787 589.32 866.019 592.68Q865.251 596.04 864.424 599.386Q863.597 602.732 862.711 606.064Q861.826 609.395 860.882 612.71Q859.938 616.026 858.937 619.324Q857.935 622.622 856.876 625.902Q855.817 629.182 854.701 632.444Q853.585 635.705 852.412 638.946Q851.239 642.187 850.009 645.407Q848.779 648.628 847.493 651.826Q846.208 655.024 844.866 658.199Q843.525 661.374 842.128 664.525Q840.731 667.677 839.279 670.803Q837.827 673.929 836.321 677.03Q834.814 680.13 833.254 683.204Q831.694 686.277 830.08 689.323Q828.466 692.369 826.799 695.386Q825.132 698.403 823.413 701.391Q821.693 704.378 819.922 707.335Q818.151 710.292 816.328 713.217Q814.505 716.143 812.631 719.036C800.519 737.767 786.926 755.564 770.981 771.23C750.849 791.01 728.305 809.918 704.499 825.124C644.529 863.432 573.832 880.765 503.107 879.97Q497.298 879.849 491.496 879.54Q485.694 879.23 479.905 878.732Q474.116 878.234 468.346 877.548Q462.576 876.863 456.832 875.99Q451.087 875.117 445.374 874.057Q439.661 872.998 433.986 871.754Q428.31 870.509 422.678 869.081Q417.046 867.653 411.463 866.042Q405.88 864.432 400.353 862.641Q394.826 860.85 389.359 858.88Q383.893 856.91 378.494 854.764Q373.094 852.617 367.767 850.297Q362.441 847.976 357.192 845.483Q351.943 842.991 346.779 840.329Q341.614 837.667 336.538 834.838Q331.463 832.01 326.482 829.018C316.311 822.942 305.574 816.438 296.434 808.88C274.209 793.604 248.457 769.156 232.18 747.417C226.423 741.632 221.334 733.37 216.766 726.584C197.908 698.566 184.493 673.064 172.886 641.236C169.731 632.583 166.479 623.97 164.24 615.024C168.241 612.04 177.43 598.259 181.806 593.455L182.271 592.698C202.49 567.179 223.823 542.542 244.21 517.157L353.067 382.691C358.234 376.421 362.883 369.737 368.083 363.513C369.071 356.564 373.386 350.831 373.921 343.971C374.364 338.272 373.988 332.377 374.014 326.657L374.047 292.417C374.046 263.816 376.21 250.032 391.347 225.093Z"/>
	<path fill="#F5A201" transform="scale(0.0292969 0.0292969)" d="M609.274 349.234C609.646 349.441 609.755 349.493 610.151 349.768C615.95 353.798 620.121 359.22 621.485 366.265C623.088 374.546 620.863 381.683 616.227 388.456C614.11 390.966 611.781 392.779 609.06 394.551C608.477 379.548 608.755 364.241 609.274 349.234Z"/>
	<path fill="#F5A201" transform="scale(0.0292969 0.0292969)" d="M396.975 344.356L397.505 344.442C398.781 346.347 397.94 374.951 398.176 379.836C398.407 384.634 399.13 389.402 399.809 394.153C397.136 392.463 394.743 390.63 392.323 388.596C390.896 387.22 389.576 385.785 388.394 384.191C384.281 378.647 382.786 371.514 383.794 364.733C385.108 355.899 390.116 349.573 396.975 344.356Z"/>
	<path fill="#A8E8F9" transform="scale(0.0292969 0.0292969)" d="M535.56 586.214C540.533 588.698 546.123 593.92 550.866 597.211C545.579 612.966 540.776 629.071 536.068 645.012L533.817 652.851C532.027 645.909 527.52 607.466 528.923 600.876C529.932 596.137 533.434 590.652 535.56 586.214Z"/>
	<path fill="#A8E8F9" transform="scale(0.0292969 0.0292969)" d="M472.564 586.421C474.333 587.347 480.903 600.843 482.41 603.597C480.409 620.672 479.968 637.943 477.914 655.001L475.506 648.845C468.871 632.062 463.794 614.447 458.131 597.299C462.611 593.396 467.783 589.971 472.564 586.421Z"/>
	<path fill="#FFBA42" transform="scale(0.0292969 0.0292969)" d="M503.694 561.902C509.919 564.659 518.393 572.241 524.02 576.58C520.474 583.512 516.393 590.193 512.719 597.066L507.125 597.049L496.607 597.064C492.431 590.548 488.828 583.583 484.938 576.884Q494.192 569.238 503.694 561.902Z"/>
	<defs>
		<linearGradient id="gradient_2" gradientUnits="userSpaceOnUse" x1="500.51553" y1="504.07169" x2="504.74811" y2="472.41492">
			<stop offset="0" stop-color="#FBD17D"/>
			<stop offset="1" stop-color="#EDCCA7"/>
		</linearGradient>
	</defs>
	<path fill="url(#gradient_2)" transform="scale(0.0292969 0.0292969)" d="M452.552 475.925C474.975 488.919 497.714 498.601 523.988 491.518C535.22 488.491 545.06 482.834 555.105 477.175L554.988 487.229C540.289 496.833 525.668 504.763 507.733 505.151C485.207 505.64 468.389 497.133 452.491 481.88L452.552 475.925Z"/>
	<path fill="#FEFEFC" transform="scale(0.0292969 0.0292969)" d="M439.687 511.867Q465.535 531.645 490.881 552.064Q480.471 560.035 469.83 567.695C464.178 571.852 458.866 576.422 453.081 580.413C448.909 570.639 446.309 560.222 442.881 550.171C439.282 539.614 434.898 529.298 431.506 518.684L439.687 511.867Z"/>
	<path fill="#FEFEFC" transform="scale(0.0292969 0.0292969)" d="M566.889 510.904C569.852 513.779 573.442 516.134 576.901 518.36C573.304 526.89 570.673 535.908 567.752 544.69C563.805 556.557 559.726 568.356 556.014 580.301C549.884 577.025 544.304 572.267 538.76 568.104C531.599 562.481 524.15 557.338 516.901 551.851C520.669 548.28 525.012 545.121 529.081 541.89C541.736 531.842 555.342 522.218 566.889 510.904Z"/>
	<path fill="#FEFEFC" transform="scale(0.0292969 0.0292969)" d="M452.491 481.88C468.389 497.133 485.207 505.64 507.733 505.151C525.668 504.763 540.289 496.833 554.988 487.229C555.002 491.141 555.247 494.936 555.667 498.826C539.322 513.767 521.213 526.79 504.015 540.726L452.018 500.234C452.522 494.107 452.496 488.023 452.491 481.88Z"/>
	<defs>
		<linearGradient id="gradient_3" gradientUnits="userSpaceOnUse" x1="478.85672" y1="471.64313" x2="507.91388" y2="383.57608">
			<stop offset="0" stop-color="#FBD998"/>
			<stop offset="1" stop-color="#E9CCB1"/>
		</linearGradient>
	</defs>
	<path fill="url(#gradient_3)" transform="scale(0.0292969 0.0292969)" d="M414.458 389.553C414.666 389.684 414.882 389.805 415.084 389.946C417.752 391.803 424.526 406.882 426.899 410.798C444.524 439.892 478 464.977 513.542 461.213C537.256 458.702 562.475 441 577.156 422.742C580.589 418.471 586.526 407.834 590.757 405.352C588.486 415.791 581.97 426.927 575.873 435.565C561.966 455.271 539.029 473.435 514.74 477.486C494.779 480.814 473.874 472.376 457.962 460.773Q456.874 459.992 455.805 459.184Q454.736 458.377 453.688 457.542Q452.64 456.708 451.613 455.848Q450.587 454.988 449.582 454.102Q448.577 453.217 447.594 452.306Q446.612 451.396 445.652 450.461Q444.693 449.526 443.757 448.568Q442.821 447.609 441.909 446.628Q440.998 445.646 440.111 444.642Q439.224 443.638 438.363 442.612Q437.502 441.586 436.666 440.539Q435.831 439.492 435.022 438.424Q434.213 437.357 433.431 436.269Q432.649 435.182 431.895 434.075Q431.14 432.968 430.413 431.843Q429.687 430.717 428.988 429.574Q428.29 428.431 427.621 427.271Q426.951 426.111 426.311 424.934Q425.671 423.757 425.06 422.565Q424.45 421.373 423.869 420.166Q423.288 418.959 422.738 417.737Q422.188 416.516 421.668 415.281Q421.149 414.047 420.66 412.799Q420.172 411.552 419.715 410.293Q419.258 409.034 418.832 407.764Q418.406 406.493 418.013 405.213Q417.619 403.933 417.258 402.643Q416.896 401.353 416.567 400.055Q416.238 398.756 415.942 397.45Q415.645 396.143 415.381 394.83Q415.117 393.517 414.887 392.197Q414.656 390.878 414.458 389.553Z"/>
	<path fill="#4FB8D3" transform="scale(0.0292969 0.0292969)" d="M417.788 441.822C423.536 449.54 429.998 456.442 436.533 463.483Q436.606 478.751 436.515 494.019C431.4 498.31 426.459 502.675 421.705 507.37C417.442 506.702 412.831 507.009 408.521 507.076C392.197 507.332 377.619 508.963 361.945 513.807C364.718 508.249 369.196 503.148 372.973 498.214C381.732 486.773 390.847 475.66 399.894 464.451C405.914 456.991 411.395 448.947 417.788 441.822Z"/>
	<path fill="#F5A201" transform="scale(0.0292969 0.0292969)" d="M505.014 611.281C508.371 611.037 511.771 611.032 515.137 610.935C516.101 630.024 518 649.211 519.51 668.275C520.059 675.215 521.03 682.305 521.185 689.254Q521.221 691.229 521.005 693.192Q520.789 695.155 520.324 697.075C519.417 700.672 517.74 704.182 516.579 707.724C515.017 712.49 508.314 736.62 506.621 738.409L505.986 737.841C503.431 732.66 489.296 691.377 488.829 686.774C488.123 679.825 490.875 663.973 491.692 656.092C493.227 641.278 494.135 626.414 495.687 611.601L505.014 611.281Z"/>
	<path fill="#0C94B0" transform="scale(0.0292969 0.0292969)" d="M591.032 522.443Q602.696 522.234 614.331 523.077C614.952 548.721 614.506 574.47 614.524 600.123C607.159 603.886 592.523 609.821 586.592 614.26C584.807 615.596 583.438 617.081 583.207 619.403C582.552 625.993 598.164 639.371 602.725 644.537C595.749 654.247 586.501 662.77 578.601 671.763C567.653 684.228 557.463 697.353 546.519 709.834C539.597 717.898 532.712 726.109 525.122 733.56C530.269 712.313 538.084 691.256 544.8 670.441C552.349 647.044 558.925 623.345 566.425 599.946C574.725 574.053 584.031 548.774 591.032 522.443Z"/>
	<path fill="#0C94B0" transform="scale(0.0292969 0.0292969)" d="M398.597 523.216C404.595 522.935 410.618 523.014 416.621 522.989C435.487 581.508 456.727 639.199 474.929 697.936Q478.862 710.844 483.237 723.61C486.15 732.186 489.352 740.752 490.957 749.692C486.2 744.878 481.694 739.829 477.153 734.813C462.989 719.355 450.217 702.537 437.225 686.088C426.392 672.373 415.176 658.92 404.68 644.946C409.473 639.294 422.473 626.969 424.693 621.337C425.332 619.716 425.494 617.906 424.608 616.326C421.902 611.498 398.021 604.666 391.985 602.984C391.469 576.551 392.23 550.011 391.135 523.608L398.597 523.216Z"/>
	<path fill="#0C94B0" transform="scale(0.0292969 0.0292969)" d="M715.656 731.339C715.478 719.407 715.207 707.191 715.892 695.29Q716.114 716.006 716.04 736.724C716.047 744.406 716.92 753.036 715.492 760.568C714.836 764.027 713.914 766.086 711.441 768.65C704.549 775.796 694.866 774.481 685.773 774.469L512.057 774.554C524.301 759.271 537.546 744.903 550.11 729.899C553.041 731.265 618.857 730.479 627.343 730.499C627.39 728.658 627.531 726.85 627.717 725.019C629.031 722.374 630.366 720.479 633.251 719.457C635.889 718.523 638.712 718.942 641.178 720.177Q641.808 720.494 642.403 720.875Q642.997 721.256 643.549 721.695Q644.101 722.135 644.605 722.629Q645.109 723.123 645.56 723.667Q646.01 724.21 646.402 724.797Q646.794 725.384 647.124 726.008Q647.454 726.632 647.717 727.287Q647.981 727.942 648.176 728.62C648.437 729.515 648.579 730.398 648.705 731.32C656.131 731.823 663.857 731.391 671.325 731.385L715.656 731.339Z"/>
	<path fill="#013C58" transform="scale(0.0292969 0.0292969)" d="M627.717 725.019C629.031 722.374 630.366 720.479 633.251 719.457C635.889 718.523 638.712 718.942 641.178 720.177Q641.808 720.494 642.403 720.875Q642.997 721.256 643.549 721.695Q644.101 722.135 644.605 722.629Q645.109 723.123 645.56 723.667Q646.01 724.21 646.402 724.797Q646.794 725.384 647.124 726.008Q647.454 726.632 647.717 727.287Q647.981 727.942 648.176 728.62C648.437 729.515 648.579 730.398 648.705 731.32C647.895 738.207 650.664 746.489 646.049 752.52C643.942 755.272 639.394 757.897 635.927 758.224C634.169 758.39 632.539 757.907 631.23 756.707C625.852 751.779 628.299 733.24 627.77 725.723L627.717 725.019Z"/>
	<defs>
		<linearGradient id="gradient_4" gradientUnits="userSpaceOnUse" x1="388.8215" y1="779.96271" x2="393.72092" y2="722.03595">
			<stop offset="0" stop-color="#098EA7"/>
			<stop offset="1" stop-color="#1BA5C7"/>
		</linearGradient>
	</defs>
	<path fill="url(#gradient_4)" transform="scale(0.0292969 0.0292969)" d="M360.901 727.485C360.938 725.527 360.875 723.669 362.049 721.998C363.151 720.427 365.152 719.314 367.018 718.989Q367.422 718.919 367.831 718.892Q368.24 718.865 368.649 718.88Q369.059 718.894 369.465 718.952Q369.87 719.009 370.268 719.108Q370.666 719.206 371.051 719.346Q371.437 719.485 371.806 719.664Q372.175 719.842 372.523 720.058Q372.872 720.273 373.196 720.524C375.233 722.107 375.801 723.838 376.189 726.307C399.283 726.999 424.387 727.467 447.394 725.752C459.955 741.045 477.993 762.724 493.878 774.452L368.92 774.422L329.441 774.496C321.949 774.499 313.991 774.98 306.559 774.006C302.538 773.479 298.207 771.966 295.327 768.997C293.541 767.156 292.475 764.594 291.933 762.118C290.212 754.255 291.431 737.065 291.502 728.325C296.078 728.948 300.634 728.399 305.226 728.282L328.502 727.886C335.708 727.781 355.606 728.796 360.901 727.485Z"/>
	<path fill="#013C58" transform="scale(0.0292969 0.0292969)" d="M360.901 727.485C360.938 725.527 360.875 723.669 362.049 721.998C363.151 720.427 365.152 719.314 367.018 718.989Q367.422 718.919 367.831 718.892Q368.24 718.865 368.649 718.88Q369.059 718.894 369.465 718.952Q369.87 719.009 370.268 719.108Q370.666 719.206 371.051 719.346Q371.437 719.485 371.806 719.664Q372.175 719.842 372.523 720.058Q372.872 720.273 373.196 720.524C375.233 722.107 375.801 723.838 376.189 726.307C376.173 726.466 376.156 726.624 376.142 726.783C375.503 733.942 378.551 751.442 372.972 756.132C371.334 757.509 369.242 757.659 367.195 757.437C364.27 757.12 362.692 755.123 360.954 752.969C360.545 744.475 361.247 735.961 360.901 727.485Z"/>
	<defs>
		<linearGradient id="gradient_5" gradientUnits="userSpaceOnUse" x1="345.45013" y1="652.90137" x2="348.83704" y2="527.34821">
			<stop offset="0" stop-color="#6CC7E3"/>
			<stop offset="1" stop-color="#BDEBF7"/>
		</linearGradient>
	</defs>
	<path fill="url(#gradient_5)" transform="scale(0.0292969 0.0292969)" d="M374.794 526.983C375.523 544.505 375.393 562.118 375.423 579.653C375.436 587.438 374.443 596.427 375.764 604.021C376.468 608.068 377.538 610.755 380.58 613.567C386.702 619.223 395.066 620.615 402.501 623.777C398.093 629.005 386.482 639.438 387.255 646.349C387.985 652.882 394.616 658.745 398.242 663.896C396.735 664.642 391.652 656.05 389.44 654.353C386.825 652.347 384.934 654.18 382.118 653.712C377.542 652.95 372.86 650.739 368.262 650.48C356.798 649.834 345.162 650.044 333.669 649.721C326.35 649.514 319.126 648.44 311.779 648.634C306.916 648.762 297.015 652.342 293.525 651.445C293.276 651.381 293.032 651.293 292.786 651.217C291.048 655.804 293.857 664.931 292.587 669.629C292.515 669.895 292.376 670.138 292.27 670.393C292.585 670.987 292.447 671.531 292.434 672.194C291.807 668.068 292.148 663.53 292.144 659.342C292.133 648.641 292.611 637.698 291.957 627.027L291.914 626.381C292.261 599.421 305.362 573.379 324.57 554.799C338.534 541.292 355.811 531.312 374.794 526.983Z"/>
	<defs>
		<linearGradient id="gradient_6" gradientUnits="userSpaceOnUse" x1="660.17242" y1="660.52246" x2="664.50629" y2="529.03845">
			<stop offset="0" stop-color="#6DC6DF"/>
			<stop offset="1" stop-color="#B3E6FA"/>
		</linearGradient>
	</defs>
	<path fill="url(#gradient_6)" transform="scale(0.0292969 0.0292969)" d="M630.66 526.529C651.407 532.885 669.813 543.137 685.019 558.803C690.707 564.664 695.294 571.133 699.58 578.054C711.922 597.983 716.258 615.835 715.915 639.244C714.844 651.139 716.022 663.131 715.235 675.036C715.233 674.571 715.244 674.107 715.258 673.643L715.057 673.745L714.956 662.778C713.634 661.994 712.061 662.551 710.556 662.712C703.899 663.426 696.471 659.629 689.87 658.934C685.628 658.487 681.283 658.938 677.021 658.722C671.342 658.433 665.675 656.698 660.005 656.099C647.082 654.734 634.135 656.08 621.767 651.251L620.751 649.289L619.641 650.896L619.175 650.745C619.985 648.977 621.1 646.841 621.157 644.872C621.383 637.085 610.269 629.279 605.479 623.781C611.578 620.38 623.544 615.869 628.076 611.543C630.099 609.612 630.477 606.519 630.743 603.874C631.569 595.661 630.835 586.752 630.773 578.483Q630.5 552.506 630.66 526.529Z"/>
	<path fill="#4FB8D3" transform="scale(0.0292969 0.0292969)" d="M291.914 626.381L291.957 627.027C292.611 637.698 292.133 648.641 292.144 659.342C292.148 663.53 291.807 668.068 292.434 672.194C292.447 671.531 292.585 670.987 292.27 670.393C292.376 670.138 292.515 669.895 292.587 669.629C293.857 664.931 291.048 655.804 292.786 651.217C293.032 651.293 293.276 651.381 293.525 651.445C297.015 652.342 306.916 648.762 311.779 648.634C319.126 648.44 326.35 649.514 333.669 649.721C345.162 650.044 356.798 649.834 368.262 650.48C372.86 650.739 377.542 652.95 382.118 653.712C384.934 654.18 386.825 652.347 389.44 654.353C391.652 656.05 396.735 664.642 398.242 663.896C406.915 674.141 414.825 685.1 423.215 695.584C431.249 705.622 439.872 715.324 447.394 725.752C424.387 727.467 399.283 726.999 376.189 726.307C375.801 723.838 375.233 722.107 373.196 720.524Q372.872 720.273 372.523 720.058Q372.175 719.842 371.806 719.664Q371.437 719.485 371.051 719.346Q370.666 719.207 370.268 719.108Q369.87 719.009 369.465 718.952Q369.059 718.894 368.649 718.88Q368.24 718.865 367.831 718.892Q367.422 718.919 367.018 718.989C365.152 719.314 363.151 720.427 362.049 721.998C360.875 723.669 360.938 725.527 360.901 727.485C355.606 728.796 335.708 727.781 328.502 727.886L305.226 728.282C300.634 728.399 296.078 728.948 291.502 728.325L291.59 662.717C291.595 650.698 291.036 638.356 291.914 626.381Z"/>
	<path fill="#4FB8D3" transform="scale(0.0292969 0.0292969)" d="M619.175 650.745L619.641 650.896L620.751 649.289L621.767 651.251C634.135 656.08 647.082 654.734 660.005 656.099C665.675 656.698 671.342 658.433 677.021 658.722C681.283 658.938 685.628 658.487 689.87 658.934C696.471 659.629 703.899 663.426 710.556 662.712C712.061 662.551 713.634 661.994 714.956 662.778L715.057 673.745L715.258 673.643C715.244 674.107 715.233 674.571 715.235 675.036C716.022 663.131 714.844 651.139 715.915 639.244Q716.09 667.267 715.892 695.29C715.207 707.191 715.478 719.407 715.656 731.339L671.325 731.385C663.857 731.391 656.131 731.823 648.705 731.32C648.579 730.398 648.437 729.515 648.176 728.62Q647.981 727.942 647.717 727.287Q647.454 726.632 647.124 726.008Q646.794 725.384 646.402 724.797Q646.01 724.21 645.56 723.667Q645.109 723.123 644.605 722.629Q644.102 722.135 643.549 721.695Q642.997 721.256 642.403 720.875Q641.808 720.494 641.178 720.177C638.712 718.942 635.889 718.523 633.251 719.457C630.366 720.479 629.031 722.374 627.717 725.019C627.531 726.85 627.39 728.658 627.343 730.499C618.857 730.479 553.041 731.265 550.11 729.899Q583.872 689.649 619.175 650.745Z"/>
	<path fill="#F5A201" transform="scale(0.0292969 0.0292969)" d="M500.783 200.741L533.537 200.549C558.907 200.475 576.511 201.703 595.53 220.602C617.948 242.879 617.132 262.175 617.246 291.387L617.395 334.98Q613.365 332.566 609.237 330.324Q608.918 328.153 608.484 326.002C606.298 315.637 600.59 304.017 590.139 299.923C582.606 296.971 573.264 298.514 565.295 298.54C532.154 298.648 498.09 297.476 469.383 278.694C463.198 274.427 457.677 269.238 453.375 263.055C452.066 261.174 450.741 259.15 449.836 257.038C448.224 253.273 448.443 249.347 444.41 247.115C442.388 245.996 439.917 245.92 437.739 246.648C436.247 247.146 435.088 248.111 434.431 249.558C431.9 255.135 436.818 264.469 439.005 269.759C430.345 275.229 420.757 279.184 413.141 286.24C401.08 297.416 398.961 311.799 398.361 327.394C395.176 329.544 392.123 331.913 389.039 334.206Q389.141 315.771 389.057 297.336C388.997 268.789 390.078 247.27 411.198 225.488C439.264 196.541 464.588 201.166 500.783 200.741Z"/>
	<path fill="#FEFEFC" transform="scale(0.0292969 0.0292969)" d="M464.099 211.466C465.253 211.506 466.504 211.509 467.608 211.877C469.431 212.484 471.093 213.978 471.889 215.725C472.695 217.495 472.677 219.496 471.921 221.28C470.933 223.61 469.232 224.606 467.016 225.604C466.188 225.582 465.323 225.565 464.509 225.396C462.448 224.967 460.485 223.427 459.488 221.591Q459.324 221.287 459.192 220.967Q459.061 220.647 458.964 220.315Q458.866 219.983 458.805 219.643Q458.743 219.302 458.717 218.957Q458.691 218.612 458.701 218.267Q458.712 217.921 458.758 217.578Q458.805 217.236 458.887 216.9Q458.969 216.564 459.086 216.238C459.971 213.728 461.832 212.607 464.099 211.466Z"/>
	<path fill="#FEFEFC" transform="scale(0.0292969 0.0292969)" d="M489.146 212.066C501.378 211.383 513.91 212.102 526.171 212.101C537.224 212.099 549.014 211.194 559.947 212.322C561.472 212.479 563.422 212.839 564.547 213.998C565.504 214.985 565.916 215.932 565.916 217.305C565.917 220.144 564.314 221.987 562.274 223.706C561.736 223.831 561.213 223.915 560.663 223.962C546.326 225.188 531.571 224.576 517.181 224.578C509.056 224.58 499.72 225.461 491.733 224.133C490.395 223.91 489.122 223.333 488.122 222.404C486.723 221.104 486.229 219.306 486.292 217.443C486.376 214.906 487.351 213.76 489.146 212.066Z"/>
	<path fill="#FEFEFC" transform="scale(0.0292969 0.0292969)" d="M414.458 389.553C412.254 373.782 413.518 356.911 413.812 340.98C413.966 332.695 413.469 324.114 414.768 315.912C415.53 311.093 417.082 305.51 419.975 301.517C426.445 292.587 440.026 287.174 449.499 282.181C475.509 306.651 513.104 312.806 547.517 313.473C559.659 313.708 571.844 313.035 583.962 313.307C590.652 319.356 593.135 327.324 593.594 336.133C594.069 345.26 593.86 354.485 593.88 363.621C593.91 377.087 595.614 392.551 590.757 405.352C586.526 407.834 580.589 418.471 577.156 422.742C562.475 441 537.256 458.702 513.542 461.213C478 464.977 444.524 439.892 426.899 410.798C424.526 406.882 417.752 391.803 415.084 389.946C414.882 389.805 414.666 389.684 414.458 389.553Z"/>
	<path fill="#013C58" transform="scale(0.0292969 0.0292969)" d="M463.875 350.044C465.244 350.121 466.545 350.242 467.85 350.691C470.354 351.552 472.47 353.18 473.564 355.635C474.604 357.969 474.528 360.615 473.549 362.954C472.072 366.483 469.402 368.075 465.986 369.409C464.113 369.269 462.262 369.008 460.557 368.179Q460.114 367.966 459.695 367.708Q459.276 367.451 458.886 367.152Q458.495 366.853 458.137 366.516Q457.779 366.179 457.457 365.808Q457.135 365.436 456.852 365.034Q456.57 364.631 456.33 364.202Q456.09 363.773 455.894 363.322Q455.699 362.871 455.551 362.402Q455.405 361.941 455.307 361.468Q455.21 360.995 455.163 360.514Q455.116 360.033 455.119 359.55Q455.122 359.067 455.176 358.587Q455.23 358.107 455.333 357.635Q455.437 357.163 455.59 356.704Q455.742 356.246 455.942 355.806Q456.141 355.366 456.386 354.949C458.101 351.962 460.704 350.928 463.875 350.044Z"/>
	<path fill="#013C58" transform="scale(0.0292969 0.0292969)" d="M545.278 350.552C546.867 350.481 548.335 350.464 549.872 350.937C552.415 351.721 554.651 353.29 555.852 355.713C556.899 357.827 556.959 360.271 556.177 362.481C554.941 365.972 552.204 367.915 548.965 369.397C546.718 369.403 544.318 369.253 542.232 368.341C540.149 367.43 538.39 365.542 537.561 363.435C536.595 360.98 536.748 358.321 537.911 355.966C539.475 352.801 542.102 351.679 545.278 350.552Z"/>
	<path fill="#013C58" transform="scale(0.0292969 0.0292969)" d="M534.032 327.613C541.478 327.558 562.4 326.048 568.119 328.985C569.554 329.722 570.909 330.904 571.285 332.542C571.666 334.2 570.935 335.95 570.101 337.352C568.778 339.578 567.377 340.281 564.951 340.906C557.131 340.913 538.18 342.19 531.615 339.703C529.887 339.048 528.084 337.879 527.495 336.026C527.086 334.741 527.46 333.397 528.013 332.221C529.382 329.308 531.097 328.62 534.032 327.613Z"/>
	<path fill="#013C58" transform="scale(0.0292969 0.0292969)" d="M444.733 327.647C452.171 327.58 473.804 326.213 479.766 328.523C481.538 329.209 483.281 330.376 483.917 332.258C484.483 333.933 483.856 336.024 483.03 337.525C481.999 339.401 480.416 340.089 478.459 340.698C468.078 340.872 456.757 341.88 446.464 340.863C444.223 340.642 441.567 340.352 440.235 338.269C439.136 336.551 439.041 333.63 439.763 331.759C440.594 329.608 442.758 328.504 444.733 327.647Z"/>
	<path fill="#F5A201" transform="scale(0.0292969 0.0292969)" d="M497.714 383.118C504.286 382.855 511.404 382.086 517.199 385.883C520.081 387.772 522.139 390.547 522.674 393.995Q522.761 394.53 522.791 395.071Q522.821 395.611 522.794 396.153Q522.766 396.694 522.682 397.229Q522.598 397.764 522.458 398.287Q522.318 398.81 522.123 399.316Q521.929 399.822 521.682 400.304Q521.435 400.786 521.139 401.24Q520.842 401.693 520.5 402.113C517.968 405.195 514.436 406.131 510.625 406.487C503.682 406.621 494.545 407.908 488.496 403.86C486.299 402.389 484.633 400.148 484.212 397.499C483.733 394.482 484.651 391.393 486.489 388.984C489.373 385.202 493.168 383.814 497.714 383.118Z"/>
	<path fill="#013C58" transform="scale(0.0292969 0.0292969)" d="M523.446 419.504C525.109 419.358 526.326 419.435 527.921 419.98C529.475 420.511 530.777 421.363 531.389 422.975C531.976 424.524 531.67 426.384 531.052 427.879C528.85 433.205 522.196 436.586 517.033 438.491C506.433 442.4 495.167 441.206 485.049 436.596C482.778 435.349 480.445 433.92 479.081 431.648C477.893 429.67 476.615 426.421 477.484 424.094C477.993 422.729 478.716 421.982 479.991 421.3C485.666 418.263 491.196 423.985 496.41 425.426C506.26 428.15 515.04 424.284 523.446 419.504Z"/>
	<path fill="#FFBA42" transform="scale(0.0292969 0.0292969)" d="M554.011 376.573C557.991 376.25 560.929 376.49 564.696 378.109C570.027 380.4 574.463 385.069 576.497 390.498C578.415 395.616 578.041 401.141 575.644 406.037C572.873 411.697 568.216 414.795 562.445 416.813C557.367 417.26 552.74 417.252 548.108 414.772C543.374 412.238 540.125 407.772 538.73 402.632C537.235 397.125 537.694 390.855 540.571 385.864C543.618 380.579 548.298 378.038 554.011 376.573Z"/>
	<path fill="#FFBA42" transform="scale(0.0292969 0.0292969)" d="M445.421 376.044C450.238 375.741 454.856 376.595 459.017 379.15Q459.446 379.411 459.861 379.693Q460.276 379.975 460.676 380.277Q461.076 380.58 461.46 380.903Q461.845 381.226 462.212 381.567Q462.579 381.909 462.929 382.269Q463.278 382.629 463.609 383.007Q463.94 383.384 464.251 383.778Q464.562 384.171 464.853 384.58Q465.143 384.989 465.413 385.412Q465.682 385.836 465.93 386.272Q466.178 386.708 466.403 387.157Q466.628 387.605 466.831 388.064Q467.033 388.524 467.211 388.992Q467.39 389.461 467.544 389.939Q467.699 390.416 467.829 390.901Q467.959 391.385 468.064 391.876C469.258 397.435 468.178 403.643 464.901 408.322C461.621 413.006 456.972 415.387 451.487 416.447C447.111 416.613 442.83 416.129 438.87 414.136Q438.426 413.916 437.995 413.673Q437.563 413.43 437.144 413.166Q436.725 412.902 436.319 412.617Q435.914 412.332 435.524 412.027Q435.134 411.722 434.759 411.398Q434.385 411.074 434.028 410.731Q433.67 410.388 433.331 410.027Q432.991 409.667 432.67 409.29Q432.349 408.912 432.047 408.519Q431.746 408.126 431.465 407.719Q431.183 407.311 430.923 406.89Q430.663 406.468 430.424 406.034Q430.185 405.6 429.969 405.155Q429.752 404.709 429.559 404.253Q429.365 403.797 429.195 403.332Q429.025 402.867 428.878 402.394C427.291 397.248 428.274 391.871 430.817 387.202C434.086 381.202 439.006 377.894 445.421 376.044Z"/>
	<path fill="#FFBA42" transform="scale(0.0292969 0.0292969)" d="M601.566 422.507C604.369 427.364 611.461 440.568 615.861 442.954C622.351 448.461 628.021 454.754 635.023 459.682C660.226 477.42 689.754 470.82 718.434 472.306C718.355 481.094 717.063 507.035 718.752 514.27C719.143 515.944 720.22 517.501 721.443 518.682Q721.828 519.058 722.25 519.391Q722.672 519.724 723.127 520.01Q723.582 520.297 724.065 520.533Q724.548 520.77 725.054 520.954Q725.559 521.138 726.081 521.267Q726.603 521.397 727.136 521.47Q727.669 521.544 728.206 521.56Q728.744 521.577 729.28 521.536C737.892 520.806 791.396 479.345 803.966 472.137C820.042 471.773 836.151 472.017 852.232 472.033C859.95 472.04 868.235 472.614 875.882 471.633C876.018 484.143 877.124 498.384 875.89 510.699C872.72 522.608 865.197 536.15 859.421 547.111Q854.424 556.699 849.035 566.072Q843.647 575.446 837.876 584.589Q832.105 593.732 825.962 602.63Q819.82 611.527 813.315 620.163Q806.81 628.8 799.954 637.16Q793.099 645.521 785.904 653.591Q778.709 661.662 771.188 669.429Q763.667 677.196 755.831 684.646C748.281 691.858 740.746 699.282 732.639 705.872C732.676 699.517 733.766 689.019 732.111 683.21C731.595 663.239 733.216 642.791 731.433 622.908C728.441 589.554 710.413 558.765 684.885 537.577C658.216 515.442 622.775 503.367 588.104 506.578Q578.771 500.947 570.235 494.168C569.945 484.424 570.085 474.633 570.03 464.882C583.202 451.67 593.041 439.223 601.566 422.507Z"/>
	<defs>
		<linearGradient id="gradient_7" gradientUnits="userSpaceOnUse" x1="183.23729" y1="641.48041" x2="433.02643" y2="452.07788">
			<stop offset="0" stop-color="#08647E"/>
			<stop offset="1" stop-color="#399BB4"/>
		</linearGradient>
	</defs>
	<path fill="url(#gradient_7)" transform="scale(0.0292969 0.0292969)" d="M368.083 363.513C368.095 376.51 369.799 388.357 379.489 397.894C385.676 403.984 394.001 407.734 402.47 409.326C406.341 421.041 410.888 431.522 417.788 441.822C411.395 448.947 405.914 456.991 399.894 464.451C390.847 475.66 381.732 486.773 372.973 498.214C369.196 503.148 364.718 508.249 361.945 513.807L361.549 513.99C354.108 517.381 346.604 519.836 339.35 523.807C313.191 538.128 293.204 562.847 282.692 590.526C279.748 598.277 277.625 606.164 276.699 614.413C275.689 623.409 275.934 632.482 275.945 641.517L275.931 675.935C275.891 684.309 274.579 695.773 275.822 703.617C266.913 712.044 258.628 721.084 249.784 729.57C244.08 735.552 238.451 742.038 232.18 747.417C226.423 741.632 221.334 733.37 216.766 726.584C197.908 698.566 184.493 673.064 172.886 641.236C169.731 632.583 166.479 623.97 164.24 615.024C168.241 612.04 177.43 598.259 181.806 593.455L182.271 592.698C202.49 567.179 223.823 542.542 244.21 517.157L353.067 382.691C358.234 376.421 362.883 369.737 368.083 363.513Z"/>
	<defs>
		<linearGradient id="gradient_8" gradientUnits="userSpaceOnUse" x1="184.61029" y1="726.31183" x2="229.78119" y2="614.75159">
			<stop offset="0" stop-color="#1C758D"/>
			<stop offset="1" stop-color="#3490A4"/>
		</linearGradient>
	</defs>
	<path fill="url(#gradient_8)" transform="scale(0.0292969 0.0292969)" d="M164.24 615.024C168.241 612.04 177.43 598.259 181.806 593.455C183.568 602.402 186.674 611.108 189.494 619.769C203.288 662.129 221.872 695.124 249.784 729.57C244.08 735.552 238.451 742.038 232.18 747.417C226.423 741.632 221.334 733.37 216.766 726.584C197.908 698.566 184.493 673.064 172.886 641.236C169.731 632.583 166.479 623.97 164.24 615.024Z"/>
	<path fill="#F5A201" transform="scale(0.0292969 0.0292969)" d="M732.639 705.872C740.746 699.282 748.281 691.858 755.831 684.646Q763.667 677.196 771.188 669.429Q778.709 661.662 785.904 653.591Q793.099 645.521 799.954 637.16Q806.81 628.8 813.315 620.163Q819.82 611.527 825.962 602.63Q832.105 593.732 837.876 584.589Q843.647 575.446 849.035 566.072Q854.424 556.699 859.421 547.111C865.197 536.15 872.72 522.608 875.89 510.699Q875.839 514.146 875.727 517.591Q875.616 521.036 875.444 524.479Q875.272 527.921 875.04 531.36Q874.808 534.8 874.516 538.234Q874.224 541.669 873.872 545.098Q873.52 548.526 873.108 551.949Q872.696 555.371 872.224 558.785Q871.752 562.2 871.221 565.606Q870.689 569.011 870.098 572.407Q869.507 575.803 868.857 579.188Q868.206 582.573 867.497 585.946Q866.787 589.32 866.019 592.68Q865.251 596.04 864.424 599.386Q863.597 602.732 862.711 606.064Q861.826 609.395 860.882 612.71Q859.938 616.026 858.937 619.324Q857.935 622.622 856.876 625.902Q855.817 629.182 854.701 632.444Q853.585 635.705 852.412 638.946Q851.239 642.187 850.009 645.407Q848.779 648.628 847.493 651.826Q846.208 655.024 844.866 658.199Q843.525 661.374 842.128 664.525Q840.731 667.677 839.279 670.803Q837.827 673.929 836.321 677.03Q834.814 680.13 833.254 683.204Q831.694 686.277 830.08 689.323Q828.466 692.369 826.799 695.386Q825.132 698.403 823.413 701.391Q821.693 704.378 819.922 707.335Q818.151 710.292 816.328 713.217Q814.505 716.143 812.631 719.036C800.519 737.767 786.926 755.564 770.981 771.23C750.849 791.01 728.305 809.918 704.499 825.124C644.529 863.432 573.832 880.765 503.107 879.97Q497.298 879.849 491.496 879.54Q485.694 879.23 479.905 878.732Q474.116 878.234 468.346 877.548Q462.576 876.863 456.832 875.99Q451.087 875.117 445.374 874.057Q439.661 872.998 433.986 871.754Q428.31 870.509 422.678 869.081Q417.046 867.653 411.463 866.042Q405.88 864.432 400.353 862.641Q394.826 860.85 389.359 858.88Q383.893 856.91 378.494 854.764Q373.094 852.617 367.767 850.297Q362.441 847.976 357.192 845.483Q351.943 842.991 346.779 840.329Q341.614 837.667 336.538 834.838Q331.463 832.01 326.482 829.018C316.311 822.942 305.574 816.438 296.434 808.88C274.209 793.604 248.457 769.156 232.18 747.417C238.451 742.038 244.08 735.552 249.784 729.57C258.628 721.084 266.913 712.044 275.822 703.617C276.668 718.316 275.959 733.333 275.923 748.073C275.903 756.451 275.152 765.556 277.347 773.72Q277.659 774.897 278.057 776.048Q278.456 777.199 278.937 778.317Q279.418 779.436 279.981 780.516Q280.543 781.597 281.183 782.633Q281.823 783.669 282.537 784.655Q283.252 785.641 284.036 786.572Q284.821 787.504 285.672 788.375Q286.523 789.246 287.436 790.052C292.503 794.564 298.825 798.059 305.585 799.068C316.087 800.637 327.402 799.909 338.024 799.938L394.999 800.03C465.543 800.075 536.183 799.135 606.713 800.104C629.396 799.365 652.326 800.05 675.034 800.06C685.662 800.064 697.6 801.213 707.957 798.911C713.295 797.724 718.15 794.775 722.031 790.958C726.519 786.545 730.076 780.393 731.404 774.219C733.484 764.545 732.25 751.777 732.203 741.841C732.111 722.302 731.938 702.749 732.111 683.21C733.766 689.019 732.676 699.517 732.639 705.872Z"/>
</svg>
