<?xml version="1.0" encoding="utf-8" ?>
<svg xmlns="http://www.w3.org/2000/svg" xmlns:xlink="http://www.w3.org/1999/xlink" width="200" height="200" >
	<path fill="#013C58" d="M0 0L1024 0L1024 1024L0 1024L0 0Z"/>
	<path fill="#F5A201" d="M631.983 329.597L640.494 329.776L640.508 356.401C637.702 355.143 634.922 354.104 631.993 353.168L631.983 329.597Z"/>
	<path fill="#F5A201" d="M393.935 369.049C395.125 374.191 394.277 381.36 394.287 386.748C394.31 399.513 394.723 412.435 394.062 425.18C388.183 423.3 383.858 420.821 379.171 416.805C375.98 413.382 373.375 409.785 371.825 405.34Q371.609 404.727 371.423 404.103Q371.237 403.48 371.083 402.849Q370.928 402.217 370.804 401.578Q370.681 400.94 370.589 400.296Q370.497 399.652 370.438 399.005Q370.378 398.357 370.35 397.707Q370.322 397.057 370.326 396.407Q370.331 395.757 370.367 395.108Q370.404 394.458 370.472 393.811Q370.54 393.165 370.641 392.522Q370.741 391.88 370.873 391.243Q371.004 390.606 371.167 389.976Q371.331 389.347 371.525 388.726Q371.718 388.105 371.943 387.495Q372.167 386.885 372.421 386.286Q372.676 385.687 372.959 385.102C377.329 376.138 384.927 372.001 393.935 369.049Z"/>
	<path fill="#F5A201" d="M631.555 365.766C636.267 366.516 640.964 368.84 644.623 371.872C651.192 377.315 655.57 385.489 656.201 394.02C656.827 402.467 653.548 409.434 648.286 415.71C643.513 420.47 638.219 422.628 631.771 424.135C630.697 404.858 631.539 385.095 631.555 365.766Z"/>
	<path fill="#FEFEFE" d="M446.092 574.277L474.718 597.279C484.084 604.712 493.89 612.072 502.428 620.443C495.559 626.693 488.818 633.123 481.733 639.126C473.557 630.549 467.083 619.673 460.173 610.035C452.934 599.938 444.942 590.032 438.533 579.402C441 577.624 443.425 575.746 446.092 574.277Z"/>
	<path fill="#F5A201" d="M512.714 629.659C517.741 633.206 540.463 651.111 542.827 655.14C542.445 655.972 542.099 656.378 541.408 656.975C531.815 666.307 521.841 675.275 512.163 684.526C501.758 675.861 492.271 665.817 481.386 657.779L484.501 655.327C493.587 646.842 502.495 636.74 512.714 629.659Z"/>
	<path fill="#A8E8F9" d="M288.015 749.463C289.647 755.153 292.764 761.29 295.6 766.466C307.325 787.863 322.959 800.535 343.957 812.184C349.187 815.085 356.599 820.122 362.475 821.156L362.656 844.957C336.377 832.493 309.618 816.136 288.004 796.596C287.795 780.894 287.974 765.167 288.015 749.463Z"/>
	<path fill="#F5A201" d="M456.519 535.471C462.835 537.975 469.137 540.602 475.861 541.8C487.815 543.93 500.791 543.021 512.916 543.032C525.112 543.043 537.92 543.814 550.001 542.008C556.655 541.013 562.889 538.97 569.087 536.396C569.055 544.689 568.46 553.494 569.279 561.735C543.096 561.068 516.751 561.482 490.554 561.528C479.23 561.548 467.345 562.453 456.113 561.336C457.768 555.144 456.476 542.296 456.519 535.471Z"/>
	<path fill="#A8E8F9" d="M438.533 579.402C444.942 590.032 452.934 599.938 460.173 610.035C467.083 619.673 473.557 630.549 481.733 639.126Q469.182 650.208 456.393 661.014C442.38 639.597 428.3 618.31 414.67 596.641C422.406 590.619 430.532 585.065 438.533 579.402Z"/>
	<path fill="#B47202" d="M414.765 251.45L415.288 251.468C417.33 253.123 418.25 260.322 419.665 263.132C422.817 269.394 427.934 274.957 432.237 280.454C426.695 290.75 418.52 302.063 407.335 306.78C403.91 308.224 397.732 308.617 395.288 311.434C392.505 314.641 393.602 344.418 393.527 350.375C393.583 351.543 393.845 353.321 393.386 354.408C392.326 356.924 386.319 358.234 383.948 359.043C383.663 346.843 383.736 334.636 383.442 322.436C383.18 311.5 382.125 299.93 383.417 289.059Q383.622 287.252 383.981 285.469Q384.339 283.687 384.848 281.941Q385.357 280.195 386.012 278.499Q386.668 276.802 387.465 275.168C393.316 263.06 402.256 255.812 414.765 251.45Z"/>
	<path fill="#A8E8F9" d="M664.984 815.505C678.517 810.719 693.242 802.798 704.476 794.014C716.25 784.807 738.619 763.421 739.533 748.403C740.19 737.608 738.424 726.497 739.837 715.754C739.86 715.58 739.887 715.407 739.911 715.234C740.448 743.648 739.143 772.122 740.5 800.517C716.921 818.632 692.24 835.793 664.874 847.803L664.984 815.505Z"/>
	<path fill="#FEFEFE" d="M456.113 561.336C467.345 562.453 479.23 561.548 490.554 561.528C516.751 561.482 543.096 561.068 569.279 561.735L569.56 563.252C569.052 564.789 567.875 565.605 566.657 566.635C557.32 574.526 547.362 581.888 537.867 589.63C529.385 596.547 521.185 604.028 512.488 610.634C505.274 604.213 456.432 565.953 454.877 563.243C454.705 562.944 454.761 562.562 454.704 562.222L456.113 561.336Z"/>
	<path fill="#FEFEFE" d="M578.898 573.898C582.985 575.247 606.293 593.457 610.792 597.472C604.142 606.375 598.859 616.507 593.17 626.047Q582.608 643.715 571.296 660.912L562.72 653.83C554.143 646.844 545.876 639.439 537.571 632.132C532.715 627.859 528.08 623.494 522.82 619.705C530.122 614.529 536.688 608.285 543.537 602.533C555.108 592.816 566.866 583.038 578.898 573.898Z"/>
	<path fill="#B47202" d="M440.897 218.983L441.066 219.392C443.757 226.031 445.542 232.91 448.494 239.5C459.126 263.235 477.617 283.13 501.656 293.534Q504.193 294.642 506.808 295.551Q509.423 296.46 512.101 297.166Q514.778 297.871 517.502 298.368Q520.225 298.866 522.979 299.152C529.833 299.828 536.919 299.522 543.807 299.501Q563.759 299.413 583.708 299.019C592.382 298.909 613.612 299.674 620.782 297.992C622.242 297.74 623.596 297.716 625.075 297.735C630.18 298.48 635.314 298.455 640.446 299.306C640.406 294.318 640.304 289.326 640.587 284.343C641.947 294.615 640.724 306.113 640.533 316.497L553.163 316.424C538.02 316.374 518.669 317.601 504.158 314.908Q501.951 314.48 499.771 313.935Q497.59 313.389 495.442 312.728Q493.293 312.067 491.183 311.291Q489.074 310.516 487.008 309.629Q484.943 308.741 482.928 307.745Q480.913 306.748 478.955 305.645Q476.996 304.542 475.099 303.336Q473.202 302.13 471.373 300.824C462.1 294.138 438.115 268.707 431.975 258.858C430.34 256.235 429.055 253.309 428.625 250.231C427.14 239.602 434.723 227.05 440.897 218.983Z"/>
	<path fill="#F5A201" d="M533.538 682.837C534.135 704.441 533.707 726.128 533.637 747.741C533.591 762.068 534.096 776.498 533.589 790.809C534.349 803.082 533.975 815.538 533.975 827.837C533.975 844.931 534.136 862.045 533.938 879.137Q512.94 879.618 491.947 878.966L491.873 834.851C491.429 784.868 491.89 734.815 492.169 684.827C497.293 689.001 503.274 693.157 507.284 698.451C506.589 700.821 505.912 703.258 506.467 705.736C506.836 707.379 507.774 708.546 509.193 709.411C510.793 710.387 512.782 710.587 514.571 710.063C516.456 709.511 517.99 708.268 518.894 706.522C520.782 702.875 518.331 701.241 517.379 698.004C521.329 692.727 528.472 687.301 533.538 682.837Z"/>
	<path fill="#013C58" d="M509.924 741.994C510.893 741.947 511.884 741.899 512.845 742.054Q513.256 742.121 513.657 742.231Q514.058 742.341 514.445 742.493Q514.832 742.646 515.201 742.838Q515.57 743.031 515.916 743.262Q516.262 743.492 516.581 743.759Q516.901 744.025 517.19 744.324Q517.48 744.623 517.736 744.951Q517.992 745.279 518.211 745.632Q518.379 745.903 518.519 746.19Q518.659 746.476 518.77 746.776Q518.881 747.075 518.961 747.383Q519.042 747.692 519.091 748.007Q519.141 748.323 519.158 748.641Q519.176 748.96 519.162 749.278Q519.148 749.597 519.102 749.913Q519.056 750.228 518.979 750.538C518.352 753.155 516.781 754.354 514.607 755.744C513.973 755.844 513.37 755.9 512.727 755.852C510.757 755.703 509.026 754.975 507.74 753.437C506.451 751.894 506.023 749.841 506.252 747.871C506.574 745.106 507.849 743.714 509.924 741.994Z"/>
	<path fill="#013C58" d="M512.057 786.562C512.847 786.671 512.901 786.663 513.762 786.865C515.85 787.355 517.626 788.656 518.612 790.576C519.491 792.286 519.583 794.23 518.923 796.03C518.06 798.385 516.383 799.595 514.223 800.678C512.968 800.717 511.392 800.768 510.224 800.252C508.453 799.47 507.093 797.707 506.518 795.891Q506.411 795.543 506.338 795.186Q506.265 794.83 506.228 794.468Q506.191 794.105 506.189 793.741Q506.187 793.377 506.221 793.015Q506.256 792.652 506.325 792.295Q506.395 791.938 506.499 791.589Q506.603 791.24 506.741 790.903Q506.879 790.566 507.049 790.244C508.203 788.054 509.782 787.282 512.057 786.562Z"/>
	<path fill="#FEFEFE" d="M623.078 603.546C634.333 602.878 645.761 603.131 657.038 603.173C680.145 603.258 701.061 610.736 717.495 627.454C743.886 654.302 740.052 681.002 739.911 715.234C739.887 715.407 739.86 715.58 739.837 715.754C738.424 726.497 740.19 737.608 739.533 748.403C738.619 763.421 716.25 784.807 704.476 794.014C693.242 802.798 678.517 810.719 664.984 815.505L664.916 728.322C664.916 712.536 666.18 695.626 663.728 680.032C660.25 657.918 648.709 642.178 633.571 626.473C628.7 621.419 623.921 616.375 618.219 612.24C619.558 609.198 621.368 606.389 623.078 603.546Z"/>
	<path fill="#FEFEFE" d="M288.015 749.463L287.961 706.852C287.955 697.21 287.575 687.406 288.512 677.798Q288.689 675.942 288.946 674.096Q289.202 672.25 289.538 670.416Q289.873 668.582 290.286 666.764Q290.7 664.947 291.191 663.148Q291.682 661.35 292.249 659.575Q292.817 657.799 293.46 656.049Q294.102 654.299 294.82 652.579Q295.537 650.858 296.327 649.17Q297.117 647.481 297.979 645.828Q298.841 644.175 299.772 642.561Q300.704 640.946 301.704 639.373Q302.704 637.8 303.77 636.271Q304.837 634.742 305.968 633.26Q307.098 631.778 308.292 630.346Q309.485 628.914 310.738 627.534Q311.992 626.154 313.303 624.829C330.649 607.337 346.538 602.935 370.465 602.949L403.325 602.884L408.878 611.094C386.377 628.697 366.899 650.383 363.342 679.977C361.484 695.433 362.626 711.912 362.567 727.519L362.475 821.156C356.599 820.122 349.187 815.085 343.957 812.184C322.959 800.535 307.325 787.863 295.6 766.466C292.764 761.29 289.647 755.153 288.015 749.463Z"/>
	<path fill="#F5A201" d="M440.897 218.983Q441.834 217.803 442.828 216.67Q443.821 215.536 444.868 214.453Q445.915 213.369 447.014 212.338Q448.113 211.306 449.26 210.329Q450.408 209.352 451.601 208.432Q452.795 207.512 454.031 206.651Q455.268 205.79 456.545 204.99Q457.823 204.19 459.137 203.453Q460.452 202.716 461.8 202.044Q463.149 201.372 464.529 200.766Q465.909 200.16 467.316 199.622Q468.724 199.084 470.156 198.615Q471.588 198.145 473.041 197.746Q474.494 197.347 475.965 197.019Q477.436 196.691 478.921 196.435Q480.406 196.179 481.902 195.995C493.212 194.657 505.331 195.544 516.732 195.587C531.955 195.646 555.925 194.188 569.998 197.492Q572.417 198.068 574.8 198.775Q577.184 199.483 579.525 200.32Q581.866 201.157 584.158 202.122Q586.45 203.086 588.685 204.174Q590.921 205.263 593.093 206.473Q595.265 207.682 597.368 209.009Q599.471 210.336 601.498 211.776Q603.524 213.217 605.469 214.766C624.109 229.573 637.745 252.597 640.219 276.459Q640.636 280.39 640.587 284.343C640.304 289.326 640.406 294.318 640.446 299.306C635.314 298.455 630.18 298.48 625.075 297.735C623.596 297.716 622.242 297.74 620.782 297.992C613.612 299.674 592.382 298.909 583.708 299.019Q563.759 299.413 543.807 299.501C536.919 299.522 529.833 299.828 522.979 299.152Q520.225 298.866 517.502 298.368Q514.778 297.871 512.101 297.166Q509.423 296.46 506.808 295.551Q504.193 294.642 501.656 293.534C477.617 283.13 459.126 263.235 448.494 239.5C445.542 232.91 443.757 226.031 441.066 219.392L440.897 218.983Z"/>
	<path fill="#FEFEFE" d="M505.332 209.244C510.467 209.161 519.187 207.983 523.327 211.224C524.543 212.176 525.329 213.542 525.337 215.12C525.346 217.137 524.226 218.953 522.867 220.359C520.418 222.893 517.874 222.632 514.625 222.679C508.988 222.571 500.584 224.23 495.875 220.516C494.734 219.616 493.804 218.366 493.761 216.853C493.715 215.245 494.601 213.621 495.649 212.464C498.566 209.246 501.293 209.376 505.332 209.244Z"/>
	<path fill="#FEFEFE" d="M620.782 297.992C619.787 297.629 618.676 297.275 617.806 296.657C616.809 295.949 616.198 294.942 615.888 293.78C614.178 287.356 615.518 277.225 614.227 269.834C612.599 260.521 608.198 251.94 602.442 244.525C577.121 211.9 545.93 228.342 536.491 221.156C534.985 220.01 533.996 218.019 533.811 216.157C533.637 214.403 534.13 212.637 535.395 211.369C538.892 207.864 549.231 208.837 553.973 208.871C575.013 209.022 594.138 216.518 608.958 231.728C623.742 246.901 628.672 267.479 628.293 288.185C628.22 292.138 628.076 294.862 625.075 297.735C623.596 297.716 622.242 297.74 620.782 297.992Z"/>
	<path fill="#FEFEFE" d="M155.744 473.2C175.875 472.877 196.043 472.877 216.177 472.917C215.532 486.265 214.375 499.517 214.464 512.893C214.925 582.283 233.65 636.363 274.037 692.58L273.968 737.937C274.002 744.822 273.415 752.483 274.399 759.258Q274.566 771.652 274.245 784.043C260.784 773.026 249.04 759.246 237.868 746Q230.712 737.434 224.125 728.422Q217.538 719.41 211.548 709.991Q205.559 700.572 200.191 690.785Q194.824 680.997 190.102 670.883C158.85 605.654 149.651 544.969 155.744 473.2Z"/>
	<path fill="#17A1CE" d="M735.145 166.628C735.346 166.614 735.546 166.597 735.747 166.586C745.026 166.078 754.5 166.416 763.797 166.434L814.957 166.523L846.511 166.472C852.23 166.463 858.639 165.905 864.25 166.943C867.992 167.635 871.386 169.836 874.114 172.416C878.218 176.296 879.472 180.47 879.601 185.958C880.115 207.779 879.645 229.718 879.613 251.55C879.602 259.574 880.53 275.821 879.221 282.805C878.792 285.099 877.538 287.187 875.895 288.82C874.102 290.602 871.905 291.489 869.46 291.998C861.588 293.639 841.607 292.305 832.375 292.148C810.5 291.705 788.45 291.401 766.573 291.641C761.376 294.601 756.449 298.798 751.662 302.409C741.54 310.045 731.584 317.902 721.531 325.628L721.419 233.114L721.399 200.777C721.395 194.761 721.143 188.624 721.554 182.624C721.72 180.191 722.079 178.087 723.212 175.902C725.716 171.075 730.15 168.317 735.145 166.628Z"/>
	<path fill="#013C58" d="M842.187 226.905C844.985 230.557 846.597 234.549 845.914 239.217C845.357 243.024 843.443 246.641 840.243 248.866Q839.784 249.191 839.292 249.466Q838.801 249.74 838.283 249.961Q837.765 250.182 837.227 250.347Q836.689 250.512 836.136 250.619Q835.583 250.725 835.023 250.773Q834.462 250.821 833.899 250.808Q833.336 250.796 832.778 250.724Q832.22 250.653 831.672 250.522C827.687 249.574 824.637 246.661 821.847 243.821Q823.498 244.217 825.185 244.404C829.131 244.811 833.414 243.432 836.409 240.843C840.729 237.106 841.759 232.303 842.187 226.905Z"/>
	<path fill="#013C58" d="M786.029 226.811C788.446 228.63 789.854 231.124 790.322 234.127C790.922 237.985 789.541 242.105 787.249 245.194C785.18 247.982 782.165 250.211 778.66 250.687C775.625 251.099 772.643 250.071 770.286 248.17C768.808 246.978 767.519 245.418 766.398 243.888C771.594 244.35 776.838 244.281 781.019 240.644C785.165 237.039 785.822 231.965 786.029 226.811Z"/>
	<path fill="#FEFEFE" d="M821.847 243.821Q821.304 243.588 820.767 243.339C816.972 241.566 813.932 238.59 812.554 234.564C811.269 230.814 811.649 226.485 813.378 222.939Q813.729 222.207 814.154 221.516Q814.579 220.824 815.074 220.181Q815.568 219.537 816.127 218.948Q816.686 218.359 817.302 217.832Q817.919 217.304 818.587 216.844Q819.256 216.383 819.968 215.994Q820.681 215.605 821.43 215.292Q822.179 214.979 822.956 214.746C826.692 213.629 830.88 213.946 834.316 215.829C838.844 218.31 840.706 222.232 842.187 226.905C841.759 232.303 840.729 237.106 836.409 240.843C833.414 243.432 829.131 244.811 825.185 244.404Q823.498 244.217 821.847 243.821Z"/>
	<path fill="#FEFEFE" d="M766.398 243.888C762.363 242.365 758.933 239.826 756.951 235.907C755.161 232.369 755.023 228.217 756.268 224.483Q756.523 223.721 756.856 222.99Q757.188 222.259 757.595 221.566Q758.001 220.873 758.477 220.225Q758.953 219.578 759.494 218.984Q760.034 218.389 760.634 217.854Q761.233 217.318 761.884 216.848Q762.535 216.378 763.232 215.977Q763.928 215.576 764.662 215.25Q765.331 214.953 766.027 214.725Q766.723 214.497 767.439 214.342Q768.154 214.186 768.882 214.103Q769.609 214.021 770.342 214.013Q771.074 214.006 771.803 214.072Q772.533 214.139 773.251 214.279Q773.97 214.42 774.671 214.632Q775.371 214.845 776.047 215.128C781.77 217.522 783.822 221.352 786.029 226.811C785.822 231.965 785.165 237.039 781.019 240.644C776.838 244.281 771.594 244.35 766.398 243.888Z"/>
	<path fill="#00537A" d="M377.727 810.937L377.478 736.177C377.375 717.99 375.401 695.943 379.502 678.423C383.1 663.054 390.952 650.686 401.489 639.105C404.623 635.66 408.05 631.872 412.024 629.384C424.673 650.542 438.876 670.732 451.91 691.635C459.231 686.203 465.607 678.114 471.36 671.083C473.563 673.134 476.146 676.072 479.014 677.033C478.064 674.409 475.26 672.92 474.283 670.357C476.25 671.941 477.707 673.79 479.265 675.752C481.025 685.656 480.216 696.812 480.332 706.919Q480.623 742.692 480.418 778.466C480.94 790.617 480.564 802.914 480.538 815.08Q480.635 846.526 479.92 877.964C452.605 876.241 424.87 868.797 399.093 859.859C391.751 857.313 384.597 853.691 377.226 851.407C377.442 838.08 376.7 824.193 377.727 810.937Z"/>
	<path fill="#00537A" d="M609.146 623.537C610.308 624.1 611.457 624.898 612.57 625.564C631.014 639.357 647.497 659.965 650.855 683.257C652.834 696.98 651.658 716.907 651.654 731.16L652.09 809.976C653.689 823.884 651.737 838.799 652.655 852.901Q646.356 855.434 639.969 857.734Q633.581 860.034 627.114 862.098Q620.646 864.162 614.108 865.988Q607.569 867.813 600.967 869.398Q594.366 870.982 587.711 872.323Q581.056 873.665 574.356 874.761Q567.656 875.857 560.921 876.707Q554.185 877.557 547.423 878.159C546.957 855.874 547.264 833.586 547.21 811.301C547.176 797.724 546.413 783.959 547.065 770.406L546.352 670.796L549.721 667.738C550.632 666.076 552.131 664.743 553.439 663.386C557.674 667.635 563.02 670.666 567.585 674.571C571.475 674.379 575.381 673.708 579.257 673.28C589.497 656.809 599.45 640.336 609.146 623.537Z"/>
	<path fill="#00537A" d="M167.972 292.085C173.449 277.39 184.783 263.468 194.288 251.153Q197.363 247.148 200.536 243.219Q203.71 239.291 206.979 235.442Q210.248 231.594 213.611 227.827Q216.974 224.06 220.429 220.377Q223.884 216.694 227.429 213.098Q230.974 209.501 234.606 205.994Q238.239 202.486 241.957 199.068Q245.675 195.651 249.476 192.327Q253.277 189.002 257.159 185.773Q261.041 182.543 265.001 179.41Q268.962 176.277 272.998 173.243Q277.035 170.209 281.145 167.275Q285.255 164.342 289.437 161.51Q293.618 158.679 297.868 155.952Q302.118 153.224 306.434 150.603Q310.749 147.981 315.129 145.466Q319.508 142.952 323.948 140.547Q328.388 138.141 332.886 135.846Q337.384 133.55 341.937 131.367Q346.49 129.183 351.096 127.112Q355.702 125.042 360.357 123.085Q365.013 121.129 369.715 119.288Q374.417 117.447 379.163 115.723Q383.91 113.999 388.697 112.392Q393.484 110.785 398.31 109.297Q403.135 107.809 407.996 106.44Q412.857 105.072 417.75 103.824Q422.643 102.575 427.565 101.448Q432.488 100.321 437.436 99.3156Q442.385 98.3103 447.357 97.4273Q452.329 96.5444 457.321 95.7843Q462.314 95.0243 467.323 94.3877Q470.984 93.927 474.653 93.5315Q478.322 93.1361 481.998 92.806Q485.673 92.4759 489.354 92.2114Q493.035 91.9468 496.72 91.7478Q500.405 91.5488 504.093 91.4155Q507.781 91.2822 511.47 91.2145Q515.16 91.1469 518.85 91.145Q522.54 91.1431 526.23 91.2068Q529.92 91.2706 533.608 91.4001Q537.296 91.5296 540.981 91.7247Q544.666 91.9198 548.347 92.1805Q552.028 92.4413 555.704 92.7675Q559.38 93.0937 563.049 93.4853Q566.719 93.877 570.38 94.3339Q574.042 94.7908 577.696 95.3128Q581.349 95.8349 584.992 96.4219Q588.635 97.0089 592.268 97.6607Q595.9 98.3125 599.52 99.0288Q603.14 99.7452 606.747 100.526Q610.353 101.307 613.946 102.151Q617.538 102.996 621.115 103.905Q624.691 104.814 628.251 105.786Q631.811 106.758 635.353 107.793Q638.895 108.829 642.418 109.927Q645.941 111.025 649.444 112.186Q652.947 113.347 656.429 114.57Q659.91 115.793 663.37 117.078Q666.829 118.363 670.265 119.71Q673.701 121.056 677.112 122.463Q680.524 123.87 683.91 125.338Q687.295 126.806 690.655 128.334Q694.014 129.862 697.345 131.449C711.285 137.934 727.195 144.636 739.437 154.066C730.554 154.272 722.933 155.819 716.504 162.654C710.643 168.883 709.106 175.859 708.851 184.116C701.618 180.314 694.741 175.891 687.588 171.948C680.772 168.191 673.551 164.894 666.417 161.785C595.926 131.073 518.726 121.814 443.396 138.084C433.6 140.199 423.971 142.353 414.395 145.331C350.552 165.184 296.489 198.562 250.843 247.445C238.242 260.94 225.654 275.7 216.085 291.526L186.176 291.647C180.183 291.678 173.925 291.425 167.972 292.085Z"/>
	<path fill="#FEFEFE" d="M231.696 291.614Q232.412 290.452 233.173 289.319C244.125 272.979 258.095 257.651 272.162 243.934C323.161 194.203 383.783 163.078 453.582 149.072C524.311 134.879 596.489 145.404 662.182 174.257C678.01 181.208 694.112 188.961 708.529 198.559L708.392 269.853C704.237 269.218 691.225 258.044 686.705 255.152C670.628 244.865 653.146 234.639 635.5 227.3C625.417 214.417 614.238 202.582 599.704 194.644C590.477 189.605 579.907 185.649 569.509 183.945C554.962 181.561 538.793 182.609 524.016 182.594C510.092 182.579 495.672 181.953 481.81 183.039Q478.248 183.331 474.735 183.995Q471.223 184.66 467.8 185.688C445.544 192.31 432.249 206.06 421.417 225.971C400.882 232.989 379.906 243.629 361.636 255.32C353.57 260.482 345.852 266.327 338.132 271.996C330.209 277.814 320.981 284.493 314.482 291.928C303.989 291.116 293.182 291.525 282.646 291.54L231.696 291.614Z"/>
	<path fill="#FEFEFE" d="M771.378 304.64C786.746 304.214 802.445 303.982 817.811 304.49C868.789 372.517 890.519 476.467 878.56 560.022C867.625 636.423 836.781 705.845 782.886 761.629C773.902 770.928 764.157 781.38 753.741 789.105C753.583 789.222 753.421 789.332 753.261 789.445C752.417 778.982 752.804 768.264 752.715 757.759C752.591 743.15 752.183 728.349 752.591 713.749C752.64 712.014 752.49 709.908 753.377 708.375C757.95 700.482 764.369 693.234 769.622 685.735C779.423 671.743 788.796 656.195 796.069 640.722C809.655 611.821 818.328 580.092 822.537 548.493C829.915 493.098 819.337 430.838 794.054 380.935C782.611 358.348 768.338 337.909 752.98 317.841C758.99 313.266 764.99 308.681 771.378 304.64Z"/>
	<path fill="#A8E8F9" d="M314.482 291.928C320.981 284.493 330.209 277.814 338.132 271.996C345.852 266.327 353.57 260.482 361.636 255.32C379.906 243.629 400.882 232.989 421.417 225.971C419.8 229.827 418.302 233.612 417.594 237.754C402.677 240.558 389.043 248.57 380.356 261.196C376.07 267.424 372.797 274.505 371.368 281.956C369.218 293.17 370.292 305.605 370.331 317.034L370.539 367.632Q369.784 368.349 369.066 369.101Q368.347 369.854 367.667 370.641Q366.986 371.428 366.345 372.247Q365.703 373.067 365.103 373.917Q364.503 374.767 363.945 375.645Q363.387 376.524 362.873 377.428Q362.359 378.333 361.89 379.262Q361.421 380.191 360.998 381.142Q360.575 382.092 360.199 383.063Q359.824 384.033 359.496 385.021Q359.168 386.008 358.889 387.011Q358.611 388.013 358.381 389.028Q358.152 390.043 357.973 391.068Q357.794 392.093 357.665 393.126Q357.536 394.158 357.459 395.196Q357.381 396.234 357.354 397.274Q357.338 398.229 357.369 399.183Q357.4 400.137 357.477 401.088Q357.555 402.04 357.679 402.987Q357.803 403.933 357.974 404.872Q358.144 405.812 358.361 406.742Q358.577 407.671 358.839 408.589Q359.1 409.508 359.407 410.412Q359.713 411.316 360.063 412.204Q360.414 413.092 360.807 413.962Q361.201 414.832 361.637 415.681Q362.072 416.531 362.549 417.358Q363.026 418.185 363.543 418.987Q364.06 419.79 364.615 420.566Q365.171 421.343 365.764 422.091Q366.357 422.839 366.986 423.557Q367.615 424.276 368.278 424.962C375.43 432.366 384.002 436.145 394.042 437.76C394.379 444.212 394.571 450.672 395.746 457.04C400.021 480.226 413.128 503.525 430.63 519.224C434.751 522.922 439.236 526.296 443.744 529.506C443.686 539.322 443.512 549.151 443.621 558.966Q433.366 566.066 423.21 573.307C417.442 577.482 407.839 585.982 401.516 588.238C394.154 590.866 369.261 588.673 359.856 589.273C316.028 592.065 283.569 627.64 276.073 669.359C274.115 680.26 274.363 691.074 274.382 702.091L274.47 738.502C274.491 745.39 274.762 752.384 274.399 759.258C273.415 752.483 274.002 744.822 273.968 737.937L274.037 692.58C233.65 636.363 214.925 582.283 214.464 512.893C214.375 499.517 215.532 486.265 216.177 472.917C236.458 473.412 256.776 472.849 277.066 473.143C285.296 483.705 295.462 493.382 304.637 503.176C313.071 512.18 321.275 522.01 330.299 530.377C332.168 532.11 334.178 533.86 336.623 534.682C337.751 534.422 338.747 534.189 339.734 533.558C341.507 532.423 342.344 530.744 342.788 528.73C344.433 521.285 343.453 499.968 343.465 491.349L343.385 402.345L343.48 351.311C343.53 341.756 344.149 331.761 343.381 322.255C342.932 316.692 341.428 311.298 338.309 306.622C332.878 298.48 323.929 293.662 314.482 291.928Z"/>
	<path fill="#F5A201" d="M135.118 304.699C148.888 304.234 162.767 304.51 176.548 304.495L253.518 304.485L292.751 304.442C299.583 304.435 307.084 303.844 313.831 304.802C317.861 305.373 321.815 307.467 324.723 310.295C327.417 312.914 329.29 316.594 329.773 320.324C330.685 327.367 330.182 334.917 330.179 342.027L330.181 381.112L330.433 512.038L320.34 500.679C312.169 492.163 304.307 483.263 296.52 474.394C292.311 469.602 288.35 464.416 283.618 460.128L180.366 460.06L148.427 460.022C142.814 460.032 136.942 460.446 131.37 459.901C127.641 459.535 123.804 458.713 120.805 456.341C116.266 452.751 113.708 448.581 113.191 442.827C112.532 435.492 112.875 427.924 112.793 420.55Q112.533 396.788 112.559 373.026L112.531 342.834C112.528 336.308 112.159 329.512 113.103 323.043C113.697 318.976 115.204 315.549 117.908 312.413C122.444 307.152 128.429 305.265 135.118 304.699Z"/>
	<path fill="#FEFEFE" d="M256.612 398.134C258.816 394.918 261.399 392.457 265.379 391.741Q265.939 391.638 266.507 391.594Q267.074 391.55 267.644 391.564Q268.213 391.578 268.778 391.651Q269.342 391.723 269.897 391.854Q270.451 391.984 270.989 392.171Q271.527 392.357 272.043 392.598Q272.559 392.839 273.047 393.132Q273.535 393.425 273.991 393.766C276.803 395.836 278.086 398.634 278.958 401.916C278.951 401.979 278.945 402.043 278.936 402.106C278.335 405.98 277.136 409.537 273.837 411.927C271.346 413.731 268.247 414.297 265.253 413.682C262.204 413.057 259.379 411.25 257.681 408.621C255.454 405.175 255.745 401.959 256.612 398.134Z"/>
	<path fill="#FEFEFE" d="M220.314 393.257C225.098 393.021 233.491 391.604 237.393 394.812C238.923 396.07 239.639 397.932 239.766 399.871C239.914 402.125 239.296 404.238 237.592 405.808C235.982 407.292 232.887 407.598 230.776 407.807C223.724 408.507 216.234 407.978 209.13 408.046Q187.031 408.401 164.929 408.434C159.664 408.562 151.507 409.795 147.35 406.021C145.898 404.702 145.107 402.821 145.075 400.869C145.043 398.971 145.764 397.056 147.138 395.729C148.324 394.583 149.682 394.13 151.286 393.914C158.424 392.955 166.483 393.642 173.719 393.62Q197.018 393.634 220.314 393.257Z"/>
	<path fill="#FEFEFE" d="M150.571 355.065C159.324 354.413 168.315 354.81 177.1 354.816L222.979 354.837L261.787 354.843C268.307 354.847 276.642 353.964 282.916 355.535C284.651 355.97 286.182 357.228 287.024 358.795C287.994 360.601 288.289 363.232 287.507 365.156C286.699 367.142 284.985 368.041 283.183 368.972C272.832 369.877 262.053 369.336 251.649 369.393Q220.501 369.609 189.351 369.494C181.362 369.474 156.677 370.409 150.736 368.974C148.973 368.548 147.336 367.335 146.465 365.742C145.477 363.935 145.593 361.763 146.141 359.833C146.881 357.225 148.333 356.341 150.571 355.065Z"/>
	<path fill="#F5A201" d="M441.034 290.118C447.075 296.348 453.019 302.692 459.778 308.161C475.977 321.269 497.422 329.206 518.279 329.515C551.662 330.011 585.08 328.933 618.468 329.641L618.36 409.643C618.387 424.929 620.201 451.345 616.745 465.055C612.963 480.063 603.495 495.086 592.599 505.957C579.314 519.214 558.576 529.857 539.455 529.609C539.209 529.605 538.964 529.581 538.719 529.567C532.313 530.422 525.4 529.968 518.935 529.981C509.63 530.001 500.239 530.247 490.945 529.905C468.422 529.076 447.952 519.267 432.728 502.662C422.363 491.357 414.399 476.851 410.714 461.947C407.241 447.897 407.883 433.832 407.872 419.496L407.726 384.291C407.553 363.182 406.377 341.772 407.228 320.695C417.182 315.463 425.4 310.35 433.015 301.915C436.028 298.166 438.64 294.291 441.034 290.118Z"/>
	<path fill="#013C58" d="M455.614 377.588C458.581 377.236 461.716 376.949 464.578 377.98C468.633 379.441 471.961 382.414 473.708 386.379Q474.002 387.033 474.228 387.714Q474.454 388.395 474.609 389.096Q474.764 389.796 474.846 390.509Q474.929 391.221 474.938 391.939Q474.948 392.656 474.884 393.371Q474.82 394.085 474.684 394.789Q474.547 395.494 474.339 396.18Q474.132 396.867 473.855 397.529C471.968 401.948 468.098 404.73 463.71 406.353C460.036 407.004 456.636 407.314 453.071 405.873C449.424 404.398 446.699 401.542 445.315 397.869C443.804 393.858 444.159 389.337 446.055 385.521C448.089 381.428 451.409 379.078 455.614 377.588Z"/>
	<path fill="#013C58" d="M435.384 351.256C444.955 350.608 454.741 350.963 464.342 350.953C470.349 350.946 476.827 350.43 482.767 351.191C484.415 351.403 485.812 351.768 487.058 352.935C488.394 354.185 489.25 355.933 489.31 357.771C489.362 359.368 487.955 361.785 486.667 362.752C485.726 363.459 484.911 363.666 483.779 363.784C476.841 364.509 441.935 364.649 435.823 363.559C434.887 363.392 434.086 363.116 433.201 362.775C432.593 361.959 431.956 361.131 431.452 360.246C430.627 358.799 430.376 356.591 431.065 355.049C431.887 353.209 433.667 352.116 435.384 351.256Z"/>
	<path fill="#013C58" d="M564.501 377.162C567.126 377.253 569.58 377.593 571.96 378.781Q572.673 379.133 573.346 379.558Q574.019 379.983 574.644 380.475Q575.268 380.967 575.839 381.522Q576.409 382.077 576.918 382.688Q577.428 383.299 577.871 383.96Q578.314 384.62 578.686 385.323Q579.057 386.027 579.354 386.765Q579.651 387.503 579.869 388.268Q580.098 389.029 580.247 389.809Q580.396 390.59 580.462 391.382Q580.529 392.174 580.512 392.968Q580.496 393.762 580.397 394.551Q580.298 395.339 580.118 396.113Q579.937 396.887 579.677 397.637Q579.417 398.388 579.08 399.108Q578.743 399.827 578.333 400.508C575.602 404.97 571.698 406.832 566.823 408.014C563.167 407.995 560.137 407.404 557.031 405.376Q556.365 404.94 555.749 404.438Q555.132 403.935 554.57 403.372Q554.008 402.809 553.507 402.19Q553.007 401.572 552.572 400.905Q552.138 400.239 551.775 399.531Q551.412 398.823 551.124 398.081Q550.836 397.34 550.626 396.572Q550.416 395.805 550.286 395.02C549.557 390.817 550.532 386.214 553.134 382.802C556.145 378.853 559.802 377.685 564.501 377.162Z"/>
	<path fill="#013C58" d="M576.772 351.257C582.433 351.211 594.058 349.371 598.447 353.104C599.74 354.203 600.306 355.665 600.368 357.329C600.44 359.261 599.723 361.589 598.177 362.849C595.001 365.437 567.591 364.205 561.75 364.179C556.11 364.12 545.137 365.791 540.49 362.383C539.209 361.444 538.408 360.097 538.364 358.479C538.314 356.645 539.289 354.863 540.557 353.598Q541.013 353.152 541.528 352.775Q542.044 352.398 542.607 352.099Q543.171 351.799 543.772 351.584Q544.373 351.368 544.998 351.24C548.405 350.536 552.914 351.259 556.448 351.294C563.221 351.36 569.999 351.285 576.772 351.257Z"/>
	<path fill="#013C58" d="M503.045 393.446C504.927 393.482 506.617 393.693 508.092 394.937C513.491 399.488 510.573 425.738 511.381 433.323C511.403 433.531 511.43 433.739 511.454 433.948C516.891 434.277 522.698 433.343 528.033 434.518C529.957 434.941 532.501 435.852 533.399 437.784C534.189 439.481 533.515 441.307 532.749 442.868C531.693 445.023 530.33 445.655 528.149 446.449C523.446 446.661 518.72 446.953 514.014 446.993C509.743 447.03 505.288 446.607 502.165 443.366C500.35 441.482 499.151 439.042 498.547 436.508C496.789 429.131 497.983 407.57 498.044 398.732C499.445 396.443 500.847 394.989 503.045 393.446Z"/>
	<path fill="#013C58" d="M536.414 467.974C538.511 468.071 540.937 468.492 542.631 469.812C543.916 470.812 544.633 472.249 544.745 473.868C544.999 477.534 542.31 481.002 539.95 483.534C532.827 491.176 523.746 495.304 513.31 495.676C501.874 496.084 493.411 491.975 485.156 484.355C482.58 481.445 480.908 478.704 479.515 475.106C480.288 473.306 481.082 470.932 482.697 469.734C487.937 465.849 494.191 475.338 497.907 478.304Q499.004 479.174 500.202 479.898Q501.4 480.622 502.681 481.187Q503.961 481.753 505.303 482.152Q506.645 482.551 508.027 482.776C514.987 483.875 523.664 481.37 528.6 476.199C531.092 473.588 533.116 470.349 536.053 468.223C536.171 468.137 536.293 468.057 536.414 467.974Z"/>
	<path fill="#A8E8F9" d="M635.5 227.3C653.146 234.639 670.628 244.865 686.705 255.152C691.225 258.044 704.237 269.218 708.392 269.853C707.515 284.033 708.08 298.511 708.114 312.729C708.133 320.394 707.411 328.853 708.248 336.412C708.453 338.263 709.049 340.314 710.297 341.742C711.392 342.994 713.015 343.672 714.662 343.732C724.01 344.07 743.587 322.575 752.98 317.841C768.338 337.909 782.611 358.348 794.054 380.935C819.337 430.838 829.915 493.098 822.537 548.493C818.328 580.092 809.655 611.821 796.069 640.722C788.796 656.195 779.423 671.743 769.622 685.735C764.369 693.234 757.95 700.482 753.377 708.375C752.49 709.908 752.64 712.014 752.591 713.749C752.249 702.016 752.592 690.237 752.499 678.496C752.313 654.851 741.629 632.23 724.802 615.76C719.487 610.557 713.45 606.256 707.04 602.508C680.645 587.075 654.318 590.29 625.183 590.549C616.531 585.545 608.593 578.817 600.589 572.845C594.552 568.34 588.031 564.199 582.513 559.071Q582.385 544.825 582.5 530.58C589.868 525.268 597.126 520.073 603.551 513.603C625.747 491.25 631.721 467.21 631.505 436.675Q632.767 436.494 634.027 436.296C645.194 434.533 655.315 428.911 661.973 419.621C668.574 410.411 670.604 398.869 668.729 387.807C667.059 377.961 661.64 367.865 653.351 362.059C653.61 346.477 653.494 330.87 653.509 315.285C653.525 297.844 654.868 279.423 650.767 262.374C647.739 249.787 641.962 238.412 635.5 227.3Z"/>
	<path fill="#00537A" d="M835.344 306.02C849.614 305.772 864.896 308.351 878.737 304.451C888.823 322.537 898.327 341.151 905.926 360.437C937.74 441.179 944.667 535.314 920.874 619.089C912.731 647.758 902.544 676.262 889.067 702.884C854.303 771.551 792.976 837.651 725.669 875.169C702.346 888.171 678.078 900.081 652.861 908.95C576.427 935.832 487.921 939.959 409.878 917.698Q404.779 916.239 399.717 914.655Q394.655 913.071 389.633 911.362Q384.612 909.654 379.635 907.822Q374.657 905.99 369.726 904.035Q364.795 902.081 359.914 900.006Q355.033 897.93 350.205 895.735Q345.376 893.54 340.604 891.226Q335.831 888.913 331.117 886.482Q326.403 884.051 321.75 881.505Q317.097 878.958 312.508 876.298Q307.92 873.637 303.398 870.865Q298.877 868.092 294.425 865.208Q289.974 862.325 285.595 859.332Q281.215 856.339 276.911 853.24Q272.607 850.14 268.381 846.935Q264.155 843.73 260.009 840.422Q255.864 837.113 251.801 833.704Q247.738 830.294 243.76 826.785Q239.783 823.276 235.893 819.67Q232.004 816.064 228.204 812.364Q224.405 808.663 220.698 804.869Q216.991 801.076 213.378 797.192Q209.766 793.308 206.251 789.336Q202.736 785.365 199.319 781.307Q195.903 777.25 192.588 773.11Q189.273 768.969 186.061 764.748Q182.849 760.527 179.743 756.228Q176.636 751.929 173.636 747.555Q170.637 743.181 167.746 738.734Q164.855 734.287 162.075 729.77Q159.295 725.253 156.627 720.669Q153.959 716.085 151.405 711.436C115.328 646.557 100.324 570.166 102.913 496.427C103.158 489.473 103.803 465.744 105.466 460.433C105.506 460.303 105.565 460.18 105.614 460.053C106.755 461.482 108.012 462.908 109.325 464.182C119.036 473.606 131.243 472.834 143.718 472.675C143.13 484.973 142.045 497.213 141.973 509.535C141.628 569.015 153.736 623.834 179.442 677.541Q181.52 681.778 183.699 685.964Q185.879 690.15 188.16 694.281Q190.44 698.413 192.82 702.488Q195.2 706.563 197.678 710.58Q200.156 714.596 202.73 718.552Q205.304 722.507 207.974 726.399Q210.643 730.29 213.406 734.116Q216.169 737.942 219.024 741.7Q221.879 745.458 224.824 749.146Q227.768 752.833 230.802 756.449Q233.835 760.064 236.955 763.605Q240.075 767.145 243.28 770.609Q246.485 774.074 249.773 777.459Q253.061 780.845 256.429 784.15Q259.798 787.454 263.246 790.677Q266.694 793.899 270.219 797.037Q273.744 800.175 277.344 803.227Q280.943 806.278 284.616 809.242Q288.289 812.205 292.032 815.079Q295.776 817.953 299.588 820.735Q303.399 823.517 307.278 826.206Q311.156 828.895 315.098 831.49Q319.04 834.084 323.044 836.583Q327.048 839.081 331.111 841.481Q335.174 843.882 339.294 846.183Q343.414 848.484 347.589 850.685Q351.763 852.886 355.99 854.985Q360.217 857.085 364.493 859.081Q368.769 861.077 373.093 862.969Q377.416 864.861 381.784 866.648Q386.152 868.435 390.562 870.115Q394.972 871.796 399.421 873.369C485.507 903.542 592.591 896.37 674.574 856.875Q678.26 855.112 681.908 853.273Q685.556 851.434 689.165 849.519Q692.774 847.604 696.342 845.615Q699.91 843.625 703.437 841.562Q706.963 839.499 710.445 837.363Q713.928 835.227 717.365 833.018Q720.803 830.81 724.193 828.531Q727.584 826.252 730.926 823.903Q734.269 821.553 737.562 819.135Q740.855 816.717 744.097 814.231Q747.338 811.744 750.528 809.191Q753.717 806.638 756.853 804.019Q759.988 801.4 763.069 798.716Q766.149 796.033 769.173 793.286Q772.197 790.539 775.163 787.729Q778.13 784.92 781.037 782.049Q783.944 779.178 786.79 776.248Q789.637 773.317 792.422 770.328Q795.207 767.339 797.93 764.293Q800.652 761.247 803.31 758.144Q805.969 755.042 808.562 751.885Q811.155 748.728 813.682 745.518Q816.209 742.308 818.669 739.046Q821.128 735.783 823.519 732.471Q825.911 729.158 828.232 725.797Q830.554 722.435 832.805 719.026Q835.057 715.617 837.237 712.161Q839.417 708.706 841.524 705.206Q843.632 701.706 845.666 698.163Q847.7 694.62 849.66 691.036Q851.621 687.451 853.506 683.827Q855.391 680.202 857.2 676.539C862.567 665.464 867.847 654.178 871.889 642.539C878.473 623.581 884.513 603.457 888.257 583.714Q888.887 580.285 889.456 576.846Q890.025 573.407 890.533 569.958Q891.041 566.509 891.488 563.052Q891.934 559.594 892.319 556.13Q892.704 552.665 893.028 549.194Q893.351 545.723 893.613 542.247Q893.874 538.771 894.074 535.29Q894.274 531.81 894.412 528.327Q894.55 524.843 894.625 521.358Q894.701 517.873 894.715 514.387Q894.729 510.901 894.681 507.415Q894.633 503.929 894.523 500.445Q894.413 496.961 894.242 493.479Q894.07 489.997 893.836 486.519Q893.602 483.041 893.307 479.567Q893.011 476.094 892.654 472.626Q892.297 469.158 891.878 465.697Q891.459 462.237 890.979 458.784Q890.499 455.331 889.957 451.887Q889.415 448.443 888.813 445.01Q888.21 441.576 887.546 438.154Q886.883 434.732 886.158 431.322Q885.434 427.912 884.649 424.515Q883.864 421.119 883.019 417.737Q882.174 414.355 881.269 410.988Q880.364 407.621 879.399 404.272Q878.434 400.922 877.41 397.589Q876.386 394.257 875.303 390.944Q874.219 387.63 873.077 384.337Q871.935 381.043 870.735 377.77Q869.535 374.497 868.276 371.246Q867.018 367.995 865.702 364.767C861.613 354.892 856.954 344.822 851.79 335.462C846.359 325.618 840.26 316.143 835.344 306.02Z"/>
</svg>
